<?xml version="1.0" encoding="UTF-8"?>
<svg xmlns="http://www.w3.org/2000/svg" width="720" height="1280" viewBox="0 0 720 1280" fill="none">
  <defs>
    <linearGradient id="bgFill" x1="0" y1="0" x2="1" y2="1">
      <stop offset="0%" stop-color="#16171c"/>
      <stop offset="52%" stop-color="#241f1b"/>
      <stop offset="100%" stop-color="#4f3a28"/>
    </linearGradient>
    <linearGradient id="boardShell" x1="0" y1="0" x2="1" y2="1">
      <stop offset="0%" stop-color="#5a4736"/>
      <stop offset="100%" stop-color="#251a12"/>
    </linearGradient>
    <linearGradient id="boardFace" x1="0" y1="0" x2="0" y2="1">
      <stop offset="0%" stop-color="#c49a62"/>
      <stop offset="100%" stop-color="#6f4a2b"/>
    </linearGradient>
    <linearGradient id="coveredTile" x1="0" y1="0" x2="1" y2="1">
      <stop offset="0%" stop-color="#d6b27f"/>
      <stop offset="100%" stop-color="#8c623b"/>
    </linearGradient>
    <linearGradient id="revealedTile" x1="0" y1="0" x2="1" y2="1">
      <stop offset="0%" stop-color="#e8d7b7"/>
      <stop offset="100%" stop-color="#b48a59"/>
    </linearGradient>
    <linearGradient id="buttonFill" x1="0" y1="0" x2="1" y2="1">
      <stop offset="0%" stop-color="#ffd88a"/>
      <stop offset="100%" stop-color="#ffad43"/>
    </linearGradient>
    <filter id="amberGlow" x="-40%" y="-40%" width="180%" height="180%">
      <feGaussianBlur stdDeviation="10" result="blur"/>
      <feMerge>
        <feMergeNode in="blur"/>
        <feMergeNode in="SourceGraphic"/>
      </feMerge>
    </filter>
    <style>
      text { font-family: "Avenir Next", "Nunito Sans", "Trebuchet MS", sans-serif; }
      .title { font-size: 58px; font-weight: 700; fill: #fff2d5; }
      .subtitle { font-size: 24px; fill: rgba(255, 242, 213, 0.8); }
      .hudLabel { font-size: 12px; letter-spacing: 0.24em; fill: rgba(255, 235, 199, 0.62); }
      .hudValue { font-size: 30px; font-weight: 700; fill: #fff2d5; }
      .panelTitle { font-size: 44px; font-weight: 700; fill: #fff2d5; }
      .panelCopy { font-size: 22px; fill: rgba(255, 242, 213, 0.82); }
      .panelLabel { font-size: 14px; letter-spacing: 0.2em; fill: rgba(255, 235, 199, 0.58); }
      .panelValue { font-size: 48px; font-weight: 700; fill: #fff2d5; }
      .buttonLabel { font-size: 28px; font-weight: 700; fill: #492b14; }
      .digit { font-size: 28px; font-weight: 700; dominant-baseline: middle; text-anchor: middle; }
      .tiny { font-size: 13px; font-weight: 700; letter-spacing: 0.2em; fill: rgba(255, 237, 206, 0.72); }
    </style>
  </defs>
  
  <rect width="720" height="1280" fill="url(#bgFill)"/>
  <circle cx="129.6" cy="230.39999999999998" r="158.4" fill="#f7b45a" opacity="0.12"/>
  <circle cx="590.4" cy="307.2" r="136.8" fill="#ab6b3c" opacity="0.14"/>
  <circle cx="446.4" cy="1075.2" r="244.8" fill="#3d2414" opacity="0.38"/>
  <path d="M 0 1049.6 C 129.6 972.8, 273.6 1126.4, 417.59999999999997 1024 C 532.8 947.2, 633.6 1152, 720 1075.2 L 720 1280 L 0 1280 Z" fill="#140f0c" opacity="0.72"/>
  
    <circle cx="79.2" cy="204.8" r="3" fill="#ffefc9" opacity="0.7"/>
    <circle cx="79.2" cy="204.8" r="10" fill="#ffefc9" opacity="0.06"/>
    <circle cx="158.4" cy="345.6" r="3" fill="#ffefc9" opacity="0.7"/>
    <circle cx="158.4" cy="345.6" r="10" fill="#ffefc9" opacity="0.06"/>
    <circle cx="244.8" cy="179.20000000000002" r="3" fill="#ffefc9" opacity="0.7"/>
    <circle cx="244.8" cy="179.20000000000002" r="10" fill="#ffefc9" opacity="0.06"/>
    <circle cx="496.79999999999995" cy="230.39999999999998" r="3" fill="#ffefc9" opacity="0.7"/>
    <circle cx="496.79999999999995" cy="230.39999999999998" r="10" fill="#ffefc9" opacity="0.06"/>
    <circle cx="590.4" cy="422.40000000000003" r="3" fill="#ffefc9" opacity="0.7"/>
    <circle cx="590.4" cy="422.40000000000003" r="10" fill="#ffefc9" opacity="0.06"/>
    <circle cx="417.59999999999997" cy="614.4" r="3" fill="#ffefc9" opacity="0.7"/>
    <circle cx="417.59999999999997" cy="614.4" r="10" fill="#ffefc9" opacity="0.06"/>
    <circle cx="108" cy="908.8" r="3" fill="#ffefc9" opacity="0.7"/>
    <circle cx="108" cy="908.8" r="10" fill="#ffefc9" opacity="0.06"/>
    <circle cx="626.4" cy="998.4000000000001" r="3" fill="#ffefc9" opacity="0.7"/>
    <circle cx="626.4" cy="998.4000000000001" r="10" fill="#ffefc9" opacity="0.06"/>
  
  
  
  <g>
    <rect x="40" y="170" width="640" height="808" rx="34" fill="url(#boardShell)"/>
    <rect x="52" y="184" width="616" height="780" rx="28" fill="url(#boardFace)"/>
    <rect x="70" y="282" width="580" height="652" rx="24" fill="#6d4a2e" opacity="0.64"/>
    <rect x="74" y="286" width="572" height="644" rx="20" fill="#8a6036" opacity="0.62"/>
  </g>
  
  
  <g>
    <text x="82" y="218" class="hudLabel">SCORE</text>
    <text x="82" y="254" class="hudValue">3840</text>
    <text x="638" y="218" class="hudLabel" text-anchor="end">CHAMBER</text>
    <text x="638" y="254" class="hudValue" text-anchor="end">7</text>
  </g>
  
  
  <g filter="url(#amberGlow)" opacity="0.42">
    <circle cx="209.92000000000002" cy="485.12" r="69.68" fill="#ffb347" opacity="0.24"/>
    <circle cx="445.76" cy="666.3199999999999" r="96.47999999999999" fill="#ffd67c" opacity="0.22"/>
    <path d="M 156.32 702.56 C 220.64 581.76, 317.12 557.6, 370.72 460.96000000000004 C 424.32 364.32, 542.24 376.4, 574.4000000000001 485.12" stroke="#ffdd87" stroke-width="22" stroke-linecap="round" opacity="0.26"/>
    <path d="M 199.2 835.4399999999999 C 274.24 762.96, 349.28 750.88, 424.32 811.28" stroke="#ffb347" stroke-width="18" stroke-linecap="round" opacity="0.24"/>
    <polygon points="499.36,521.36 520.8,581.76 477.91999999999996,630.0799999999999 445.76,569.68" fill="#ffe49c" opacity="0.4"/>
  </g>
  
  <g>
    <g>
      <rect x="88" y="300" width="62.75" height="57" rx="14" fill="url(#revealedTile)" opacity="0.5"/>
      <rect x="89.5" y="301.5" width="59.75" height="54" rx="12" fill="#e8d8b6" opacity="0.16"/>
      
    </g>
  
    <g>
      <rect x="156.75" y="300" width="62.75" height="57" rx="14" fill="url(#revealedTile)" opacity="0.5"/>
      <rect x="158.25" y="301.5" width="59.75" height="54" rx="12" fill="#e8d8b6" opacity="0.16"/>
      
    </g>
  
    <g>
      <rect x="225.5" y="300" width="62.75" height="57" rx="14" fill="url(#revealedTile)" opacity="0.5"/>
      <rect x="227" y="301.5" width="59.75" height="54" rx="12" fill="#e8d8b6" opacity="0.16"/>
      <text x="256.875" y="329.5" class="digit" fill="#5ec8ff">1</text>
    </g>
  
    <g>
      <rect x="294.25" y="300" width="62.75" height="57" rx="14" fill="url(#revealedTile)" opacity="0.5"/>
      <rect x="295.75" y="301.5" width="59.75" height="54" rx="12" fill="#e8d8b6" opacity="0.16"/>
      <text x="325.625" y="329.5" class="digit" fill="#6be18c">2</text>
    </g>
  
    <g>
      <rect x="363" y="300" width="62.75" height="57" rx="14" fill="url(#coveredTile)"/>
      <rect x="365" y="302" width="58.75" height="53" rx="12" fill="#d9b98b" opacity="0.16"/>
      <path d="M 374.295 315.96 C 389.355 306.84, 405.67 306.84, 415.71 315.96" stroke="#fff1c9" stroke-width="4" opacity="0.24" stroke-linecap="round"/>
      
      <polygon points="394.375,310.26 405.67,323.94 394.375,339.9 383.08,323.94" fill="#151110"/>
      <polygon points="393.7475,314.82 400.65,323.94 393.7475,333.06 386.845,323.94" fill="#ffb347"/>
      
      
    </g>
  
    <g>
      <rect x="431.75" y="300" width="62.75" height="57" rx="14" fill="url(#coveredTile)"/>
      <rect x="433.75" y="302" width="58.75" height="53" rx="12" fill="#d9b98b" opacity="0.16"/>
      <path d="M 443.045 315.96 C 458.105 306.84, 474.42 306.84, 484.46 315.96" stroke="#fff1c9" stroke-width="4" opacity="0.24" stroke-linecap="round"/>
      
      
    </g>
  
    <g>
      <rect x="500.5" y="300" width="62.75" height="57" rx="14" fill="url(#coveredTile)"/>
      <rect x="502.5" y="302" width="58.75" height="53" rx="12" fill="#d9b98b" opacity="0.16"/>
      <path d="M 511.795 315.96 C 526.855 306.84, 543.17 306.84, 553.21 315.96" stroke="#fff1c9" stroke-width="4" opacity="0.24" stroke-linecap="round"/>
      
      
    </g>
  
    <g>
      <rect x="569.25" y="300" width="62.75" height="57" rx="14" fill="url(#coveredTile)"/>
      <rect x="571.25" y="302" width="58.75" height="53" rx="12" fill="#d9b98b" opacity="0.16"/>
      <path d="M 580.545 315.96 C 595.605 306.84, 611.92 306.84, 621.96 315.96" stroke="#fff1c9" stroke-width="4" opacity="0.24" stroke-linecap="round"/>
      
      
    </g>
  
    <g>
      <rect x="88" y="363" width="62.75" height="57" rx="14" fill="url(#revealedTile)" opacity="0.5"/>
      <rect x="89.5" y="364.5" width="59.75" height="54" rx="12" fill="#e8d8b6" opacity="0.16"/>
      
    </g>
  
    <g>
      <rect x="156.75" y="363" width="62.75" height="57" rx="14" fill="url(#revealedTile)" opacity="0.5"/>
      <rect x="158.25" y="364.5" width="59.75" height="54" rx="12" fill="#e8d8b6" opacity="0.16"/>
      
    </g>
  
    <g>
      <rect x="225.5" y="363" width="62.75" height="57" rx="14" fill="url(#revealedTile)" opacity="0.5"/>
      <rect x="227" y="364.5" width="59.75" height="54" rx="12" fill="#e8d8b6" opacity="0.16"/>
      <text x="256.875" y="392.5" class="digit" fill="#5ec8ff">1</text>
    </g>
  
    <g>
      <rect x="294.25" y="363" width="62.75" height="57" rx="14" fill="url(#revealedTile)" opacity="0.5"/>
      <rect x="295.75" y="364.5" width="59.75" height="54" rx="12" fill="#e8d8b6" opacity="0.16"/>
      <text x="325.625" y="392.5" class="digit" fill="#6be18c">2</text>
    </g>
  
    <g>
      <rect x="363" y="363" width="62.75" height="57" rx="14" fill="url(#revealedTile)" opacity="0.5"/>
      <rect x="364.5" y="364.5" width="59.75" height="54" rx="12" fill="#e8d8b6" opacity="0.16"/>
      <text x="394.375" y="392.5" class="digit" fill="#6be18c">2</text>
    </g>
  
    <g>
      <rect x="431.75" y="363" width="62.75" height="57" rx="14" fill="url(#coveredTile)"/>
      <rect x="433.75" y="365" width="58.75" height="53" rx="12" fill="#d9b98b" opacity="0.16"/>
      <path d="M 443.045 378.96 C 458.105 369.84, 474.42 369.84, 484.46 378.96" stroke="#fff1c9" stroke-width="4" opacity="0.24" stroke-linecap="round"/>
      
      
    </g>
  
    <g>
      <rect x="500.5" y="363" width="62.75" height="57" rx="14" fill="url(#coveredTile)"/>
      <rect x="502.5" y="365" width="58.75" height="53" rx="12" fill="#d9b98b" opacity="0.16"/>
      <path d="M 511.795 378.96 C 526.855 369.84, 543.17 369.84, 553.21 378.96" stroke="#fff1c9" stroke-width="4" opacity="0.24" stroke-linecap="round"/>
      
      
    </g>
  
    <g>
      <rect x="569.25" y="363" width="62.75" height="57" rx="14" fill="url(#coveredTile)"/>
      <rect x="571.25" y="365" width="58.75" height="53" rx="12" fill="#d9b98b" opacity="0.16"/>
      <path d="M 580.545 378.96 C 595.605 369.84, 611.92 369.84, 621.96 378.96" stroke="#fff1c9" stroke-width="4" opacity="0.24" stroke-linecap="round"/>
      
      
    </g>
  
    <g>
      <rect x="88" y="426" width="62.75" height="57" rx="14" fill="url(#revealedTile)" opacity="0.5"/>
      <rect x="89.5" y="427.5" width="59.75" height="54" rx="12" fill="#e8d8b6" opacity="0.16"/>
      
    </g>
  
    <g>
      <rect x="156.75" y="426" width="62.75" height="57" rx="14" fill="url(#revealedTile)" opacity="0.5"/>
      <rect x="158.25" y="427.5" width="59.75" height="54" rx="12" fill="#e8d8b6" opacity="0.16"/>
      <text x="188.125" y="455.5" class="digit" fill="#5ec8ff">1</text>
    </g>
  
    <g>
      <rect x="225.5" y="426" width="62.75" height="57" rx="14" fill="url(#revealedTile)" opacity="0.5"/>
      <rect x="227" y="427.5" width="59.75" height="54" rx="12" fill="#e8d8b6" opacity="0.16"/>
      <text x="256.875" y="455.5" class="digit" fill="#5ec8ff">1</text>
    </g>
  
    <g>
      <rect x="294.25" y="426" width="62.75" height="57" rx="14" fill="url(#revealedTile)" opacity="0.5"/>
      <rect x="295.75" y="427.5" width="59.75" height="54" rx="12" fill="#e8d8b6" opacity="0.16"/>
      <text x="325.625" y="455.5" class="digit" fill="#6be18c">2</text>
    </g>
  
    <g>
      <rect x="363" y="426" width="62.75" height="57" rx="14" fill="url(#revealedTile)" opacity="0.5"/>
      <rect x="364.5" y="427.5" width="59.75" height="54" rx="12" fill="#e8d8b6" opacity="0.16"/>
      <text x="394.375" y="455.5" class="digit" fill="#6be18c">2</text>
    </g>
  
    <g>
      <rect x="431.75" y="426" width="62.75" height="57" rx="14" fill="url(#coveredTile)"/>
      <rect x="433.75" y="428" width="58.75" height="53" rx="12" fill="#d9b98b" opacity="0.16"/>
      <path d="M 443.045 441.96 C 458.105 432.84, 474.42 432.84, 484.46 441.96" stroke="#fff1c9" stroke-width="4" opacity="0.24" stroke-linecap="round"/>
      
      
    </g>
  
    <g>
      <rect x="500.5" y="426" width="62.75" height="57" rx="14" fill="url(#coveredTile)"/>
      <rect x="502.5" y="428" width="58.75" height="53" rx="12" fill="#d9b98b" opacity="0.16"/>
      <path d="M 511.795 441.96 C 526.855 432.84, 543.17 432.84, 553.21 441.96" stroke="#fff1c9" stroke-width="4" opacity="0.24" stroke-linecap="round"/>
      
      
    </g>
  
    <g>
      <rect x="569.25" y="426" width="62.75" height="57" rx="14" fill="url(#coveredTile)"/>
      <rect x="571.25" y="428" width="58.75" height="53" rx="12" fill="#d9b98b" opacity="0.16"/>
      <path d="M 580.545 441.96 C 595.605 432.84, 611.92 432.84, 621.96 441.96" stroke="#fff1c9" stroke-width="4" opacity="0.24" stroke-linecap="round"/>
      
      
    </g>
  
    <g>
      <rect x="88" y="489" width="62.75" height="57" rx="14" fill="url(#revealedTile)" opacity="0.5"/>
      <rect x="89.5" y="490.5" width="59.75" height="54" rx="12" fill="#e8d8b6" opacity="0.16"/>
      <text x="119.375" y="518.5" class="digit" fill="#5ec8ff">1</text>
    </g>
  
    <g>
      <rect x="156.75" y="489" width="62.75" height="57" rx="14" fill="url(#revealedTile)" opacity="0.5"/>
      <rect x="158.25" y="490.5" width="59.75" height="54" rx="12" fill="#e8d8b6" opacity="0.16"/>
      <text x="188.125" y="518.5" class="digit" fill="#6be18c">2</text>
    </g>
  
    <g>
      <rect x="225.5" y="489" width="62.75" height="57" rx="14" fill="url(#coveredTile)"/>
      <rect x="227.5" y="491" width="58.75" height="53" rx="12" fill="#d9b98b" opacity="0.16"/>
      <path d="M 236.795 504.96 C 251.855 495.84, 268.17 495.84, 278.21 504.96" stroke="#fff1c9" stroke-width="4" opacity="0.24" stroke-linecap="round"/>
      
      <polygon points="256.875,499.26 268.17,512.94 256.875,528.9 245.58,512.94" fill="#151110"/>
      <polygon points="256.2475,503.82 263.15,512.94 256.2475,522.06 249.345,512.94" fill="#ffb347"/>
      
      
    </g>
  
    <g>
      <rect x="294.25" y="489" width="62.75" height="57" rx="14" fill="url(#revealedTile)" opacity="0.5"/>
      <rect x="295.75" y="490.5" width="59.75" height="54" rx="12" fill="#e8d8b6" opacity="0.16"/>
      <text x="325.625" y="518.5" class="digit" fill="#5ec8ff">1</text>
    </g>
  
    <g>
      <rect x="363" y="489" width="62.75" height="57" rx="14" fill="url(#revealedTile)" opacity="0.5"/>
      <rect x="364.5" y="490.5" width="59.75" height="54" rx="12" fill="#e8d8b6" opacity="0.16"/>
      <text x="394.375" y="518.5" class="digit" fill="#5ec8ff">1</text>
    </g>
  
    <g>
      <rect x="431.75" y="489" width="62.75" height="57" rx="14" fill="url(#coveredTile)"/>
      <rect x="433.75" y="491" width="58.75" height="53" rx="12" fill="#d9b98b" opacity="0.16"/>
      <path d="M 443.045 504.96 C 458.105 495.84, 474.42 495.84, 484.46 504.96" stroke="#fff1c9" stroke-width="4" opacity="0.24" stroke-linecap="round"/>
      
      
    </g>
  
    <g>
      <rect x="500.5" y="489" width="62.75" height="57" rx="14" fill="url(#coveredTile)"/>
      <rect x="502.5" y="491" width="58.75" height="53" rx="12" fill="#d9b98b" opacity="0.16"/>
      <path d="M 511.795 504.96 C 526.855 495.84, 543.17 495.84, 553.21 504.96" stroke="#fff1c9" stroke-width="4" opacity="0.24" stroke-linecap="round"/>
      
      
    </g>
  
    <g>
      <rect x="569.25" y="489" width="62.75" height="57" rx="14" fill="url(#coveredTile)"/>
      <rect x="571.25" y="491" width="58.75" height="53" rx="12" fill="#d9b98b" opacity="0.16"/>
      <path d="M 580.545 504.96 C 595.605 495.84, 611.92 495.84, 621.96 504.96" stroke="#fff1c9" stroke-width="4" opacity="0.24" stroke-linecap="round"/>
      
      
    </g>
  
    <g>
      <rect x="88" y="552" width="62.75" height="57" rx="14" fill="url(#coveredTile)"/>
      <rect x="90" y="554" width="58.75" height="53" rx="12" fill="#d9b98b" opacity="0.16"/>
      <path d="M 99.295 567.96 C 114.355 558.84, 130.67000000000002 558.84, 140.71 567.96" stroke="#fff1c9" stroke-width="4" opacity="0.24" stroke-linecap="round"/>
      
      
    </g>
  
    <g>
      <rect x="156.75" y="552" width="62.75" height="57" rx="14" fill="url(#revealedTile)" opacity="0.5"/>
      <rect x="158.25" y="553.5" width="59.75" height="54" rx="12" fill="#e8d8b6" opacity="0.16"/>
      <text x="188.125" y="581.5" class="digit" fill="#6be18c">2</text>
    </g>
  
    <g>
      <rect x="225.5" y="552" width="62.75" height="57" rx="14" fill="url(#revealedTile)" opacity="0.5"/>
      <rect x="227" y="553.5" width="59.75" height="54" rx="12" fill="#e8d8b6" opacity="0.16"/>
      <text x="256.875" y="581.5" class="digit" fill="#6be18c">2</text>
    </g>
  
    <g>
      <rect x="294.25" y="552" width="62.75" height="57" rx="14" fill="url(#revealedTile)" opacity="0.5"/>
      <rect x="295.75" y="553.5" width="59.75" height="54" rx="12" fill="#e8d8b6" opacity="0.16"/>
      <text x="325.625" y="581.5" class="digit" fill="#5ec8ff">1</text>
    </g>
  
    <g>
      <rect x="363" y="552" width="62.75" height="57" rx="14" fill="url(#revealedTile)" opacity="0.5"/>
      <rect x="364.5" y="553.5" width="59.75" height="54" rx="12" fill="#e8d8b6" opacity="0.16"/>
      <text x="394.375" y="581.5" class="digit" fill="#5ec8ff">1</text>
    </g>
  
    <g>
      <rect x="431.75" y="552" width="62.75" height="57" rx="14" fill="url(#coveredTile)"/>
      <rect x="433.75" y="554" width="58.75" height="53" rx="12" fill="#d9b98b" opacity="0.16"/>
      <path d="M 443.045 567.96 C 458.105 558.84, 474.42 558.84, 484.46 567.96" stroke="#fff1c9" stroke-width="4" opacity="0.24" stroke-linecap="round"/>
      
      
    </g>
  
    <g>
      <rect x="500.5" y="552" width="62.75" height="57" rx="14" fill="url(#coveredTile)"/>
      <rect x="502.5" y="554" width="58.75" height="53" rx="12" fill="#d9b98b" opacity="0.16"/>
      <path d="M 511.795 567.96 C 526.855 558.84, 543.17 558.84, 553.21 567.96" stroke="#fff1c9" stroke-width="4" opacity="0.24" stroke-linecap="round"/>
      
      
    </g>
  
    <g>
      <rect x="569.25" y="552" width="62.75" height="57" rx="14" fill="url(#coveredTile)"/>
      <rect x="571.25" y="554" width="58.75" height="53" rx="12" fill="#d9b98b" opacity="0.16"/>
      <path d="M 580.545 567.96 C 595.605 558.84, 611.92 558.84, 621.96 567.96" stroke="#fff1c9" stroke-width="4" opacity="0.24" stroke-linecap="round"/>
      
      
    </g>
  
    <g>
      <rect x="88" y="615" width="62.75" height="57" rx="14" fill="url(#coveredTile)"/>
      <rect x="90" y="617" width="58.75" height="53" rx="12" fill="#d9b98b" opacity="0.16"/>
      <path d="M 99.295 630.96 C 114.355 621.84, 130.67000000000002 621.84, 140.71 630.96" stroke="#fff1c9" stroke-width="4" opacity="0.24" stroke-linecap="round"/>
      
      
    </g>
  
    <g>
      <rect x="156.75" y="615" width="62.75" height="57" rx="14" fill="url(#coveredTile)"/>
      <rect x="158.75" y="617" width="58.75" height="53" rx="12" fill="#d9b98b" opacity="0.16"/>
      <path d="M 168.045 630.96 C 183.105 621.84, 199.42000000000002 621.84, 209.46 630.96" stroke="#fff1c9" stroke-width="4" opacity="0.24" stroke-linecap="round"/>
      
      
    </g>
  
    <g>
      <rect x="225.5" y="615" width="62.75" height="57" rx="14" fill="url(#revealedTile)" opacity="0.5"/>
      <rect x="227" y="616.5" width="59.75" height="54" rx="12" fill="#e8d8b6" opacity="0.16"/>
      <text x="256.875" y="644.5" class="digit" fill="#5ec8ff">1</text>
    </g>
  
    <g>
      <rect x="294.25" y="615" width="62.75" height="57" rx="14" fill="url(#coveredTile)"/>
      <rect x="296.25" y="617" width="58.75" height="53" rx="12" fill="#d9b98b" opacity="0.16"/>
      <path d="M 305.545 630.96 C 320.605 621.84, 336.92 621.84, 346.96 630.96" stroke="#fff1c9" stroke-width="4" opacity="0.24" stroke-linecap="round"/>
      
      <polygon points="325.625,625.26 336.92,638.94 325.625,654.9 314.33,638.94" fill="#151110"/>
      <polygon points="324.9975,629.82 331.9,638.94 324.9975,648.06 318.095,638.94" fill="#ffb347"/>
      
      
    </g>
  
    <g>
      <rect x="363" y="615" width="62.75" height="57" rx="14" fill="url(#revealedTile)" opacity="0.5"/>
      <rect x="364.5" y="616.5" width="59.75" height="54" rx="12" fill="#e8d8b6" opacity="0.16"/>
      <text x="394.375" y="644.5" class="digit" fill="#5ec8ff">1</text>
    </g>
  
    <g>
      <rect x="431.75" y="615" width="62.75" height="57" rx="14" fill="url(#revealedTile)" opacity="0.5"/>
      <rect x="433.25" y="616.5" width="59.75" height="54" rx="12" fill="#e8d8b6" opacity="0.16"/>
      <text x="463.125" y="644.5" class="digit" fill="#5ec8ff">1</text>
    </g>
  
    <g>
      <rect x="500.5" y="615" width="62.75" height="57" rx="14" fill="url(#revealedTile)" opacity="0.5"/>
      <rect x="502" y="616.5" width="59.75" height="54" rx="12" fill="#e8d8b6" opacity="0.16"/>
      <text x="531.875" y="644.5" class="digit" fill="#5ec8ff">1</text>
    </g>
  
    <g>
      <rect x="569.25" y="615" width="62.75" height="57" rx="14" fill="url(#coveredTile)"/>
      <rect x="571.25" y="617" width="58.75" height="53" rx="12" fill="#d9b98b" opacity="0.16"/>
      <path d="M 580.545 630.96 C 595.605 621.84, 611.92 621.84, 621.96 630.96" stroke="#fff1c9" stroke-width="4" opacity="0.24" stroke-linecap="round"/>
      
      
    </g>
  
    <g>
      <rect x="88" y="678" width="62.75" height="57" rx="14" fill="url(#coveredTile)"/>
      <rect x="90" y="680" width="58.75" height="53" rx="12" fill="#d9b98b" opacity="0.16"/>
      <path d="M 99.295 693.96 C 114.355 684.84, 130.67000000000002 684.84, 140.71 693.96" stroke="#fff1c9" stroke-width="4" opacity="0.24" stroke-linecap="round"/>
      
      
    </g>
  
    <g>
      <rect x="156.75" y="678" width="62.75" height="57" rx="14" fill="url(#coveredTile)"/>
      <rect x="158.75" y="680" width="58.75" height="53" rx="12" fill="#d9b98b" opacity="0.16"/>
      <path d="M 168.045 693.96 C 183.105 684.84, 199.42000000000002 684.84, 209.46 693.96" stroke="#fff1c9" stroke-width="4" opacity="0.24" stroke-linecap="round"/>
      
      
    </g>
  
    <g>
      <rect x="225.5" y="678" width="62.75" height="57" rx="14" fill="url(#revealedTile)" opacity="0.5"/>
      <rect x="227" y="679.5" width="59.75" height="54" rx="12" fill="#e8d8b6" opacity="0.16"/>
      <text x="256.875" y="707.5" class="digit" fill="#5ec8ff">1</text>
    </g>
  
    <g>
      <rect x="294.25" y="678" width="62.75" height="57" rx="14" fill="url(#revealedTile)" opacity="0.5"/>
      <rect x="295.75" y="679.5" width="59.75" height="54" rx="12" fill="#e8d8b6" opacity="0.16"/>
      <text x="325.625" y="707.5" class="digit" fill="#5ec8ff">1</text>
    </g>
  
    <g>
      <rect x="363" y="678" width="62.75" height="57" rx="14" fill="url(#revealedTile)" opacity="0.5"/>
      <rect x="364.5" y="679.5" width="59.75" height="54" rx="12" fill="#e8d8b6" opacity="0.16"/>
      <text x="394.375" y="707.5" class="digit" fill="#5ec8ff">1</text>
    </g>
  
    <g>
      <rect x="431.75" y="678" width="62.75" height="57" rx="14" fill="url(#revealedTile)" opacity="0.5"/>
      <rect x="433.25" y="679.5" width="59.75" height="54" rx="12" fill="#e8d8b6" opacity="0.16"/>
      
    </g>
  
    <g>
      <rect x="500.5" y="678" width="62.75" height="57" rx="14" fill="url(#revealedTile)" opacity="0.5"/>
      <rect x="502" y="679.5" width="59.75" height="54" rx="12" fill="#e8d8b6" opacity="0.16"/>
      
    </g>
  
    <g>
      <rect x="569.25" y="678" width="62.75" height="57" rx="14" fill="url(#coveredTile)"/>
      <rect x="571.25" y="680" width="58.75" height="53" rx="12" fill="#d9b98b" opacity="0.16"/>
      <path d="M 580.545 693.96 C 595.605 684.84, 611.92 684.84, 621.96 693.96" stroke="#fff1c9" stroke-width="4" opacity="0.24" stroke-linecap="round"/>
      
      
    </g>
  
    <g>
      <rect x="88" y="741" width="62.75" height="57" rx="14" fill="url(#coveredTile)"/>
      <rect x="90" y="743" width="58.75" height="53" rx="12" fill="#d9b98b" opacity="0.16"/>
      <path d="M 99.295 756.96 C 114.355 747.84, 130.67000000000002 747.84, 140.71 756.96" stroke="#fff1c9" stroke-width="4" opacity="0.24" stroke-linecap="round"/>
      
      
    </g>
  
    <g>
      <rect x="156.75" y="741" width="62.75" height="57" rx="14" fill="url(#coveredTile)"/>
      <rect x="158.75" y="743" width="58.75" height="53" rx="12" fill="#d9b98b" opacity="0.16"/>
      <path d="M 168.045 756.96 C 183.105 747.84, 199.42000000000002 747.84, 209.46 756.96" stroke="#fff1c9" stroke-width="4" opacity="0.24" stroke-linecap="round"/>
      
      
    </g>
  
    <g>
      <rect x="225.5" y="741" width="62.75" height="57" rx="14" fill="url(#coveredTile)"/>
      <rect x="227.5" y="743" width="58.75" height="53" rx="12" fill="#d9b98b" opacity="0.16"/>
      <path d="M 236.795 756.96 C 251.855 747.84, 268.17 747.84, 278.21 756.96" stroke="#fff1c9" stroke-width="4" opacity="0.24" stroke-linecap="round"/>
      
      
    </g>
  
    <g>
      <rect x="294.25" y="741" width="62.75" height="57" rx="14" fill="url(#revealedTile)" opacity="0.5"/>
      <rect x="295.75" y="742.5" width="59.75" height="54" rx="12" fill="#e8d8b6" opacity="0.16"/>
      <text x="325.625" y="770.5" class="digit" fill="#5ec8ff">1</text>
    </g>
  
    <g>
      <rect x="363" y="741" width="62.75" height="57" rx="14" fill="url(#revealedTile)" opacity="0.5"/>
      <rect x="364.5" y="742.5" width="59.75" height="54" rx="12" fill="#e8d8b6" opacity="0.16"/>
      <text x="394.375" y="770.5" class="digit" fill="#5ec8ff">1</text>
    </g>
  
    <g>
      <rect x="431.75" y="741" width="62.75" height="57" rx="14" fill="url(#revealedTile)" opacity="0.5"/>
      <rect x="433.25" y="742.5" width="59.75" height="54" rx="12" fill="#e8d8b6" opacity="0.16"/>
      
    </g>
  
    <g>
      <rect x="500.5" y="741" width="62.75" height="57" rx="14" fill="url(#revealedTile)" opacity="0.5"/>
      <rect x="502" y="742.5" width="59.75" height="54" rx="12" fill="#e8d8b6" opacity="0.16"/>
      
    </g>
  
    <g>
      <rect x="569.25" y="741" width="62.75" height="57" rx="14" fill="url(#coveredTile)"/>
      <rect x="571.25" y="743" width="58.75" height="53" rx="12" fill="#d9b98b" opacity="0.16"/>
      <path d="M 580.545 756.96 C 595.605 747.84, 611.92 747.84, 621.96 756.96" stroke="#fff1c9" stroke-width="4" opacity="0.24" stroke-linecap="round"/>
      
      
    </g>
  
    <g>
      <rect x="88" y="804" width="62.75" height="57" rx="14" fill="url(#coveredTile)"/>
      <rect x="90" y="806" width="58.75" height="53" rx="12" fill="#d9b98b" opacity="0.16"/>
      <path d="M 99.295 819.96 C 114.355 810.84, 130.67000000000002 810.84, 140.71 819.96" stroke="#fff1c9" stroke-width="4" opacity="0.24" stroke-linecap="round"/>
      
      
    </g>
  
    <g>
      <rect x="156.75" y="804" width="62.75" height="57" rx="14" fill="url(#coveredTile)"/>
      <rect x="158.75" y="806" width="58.75" height="53" rx="12" fill="#d9b98b" opacity="0.16"/>
      <path d="M 168.045 819.96 C 183.105 810.84, 199.42000000000002 810.84, 209.46 819.96" stroke="#fff1c9" stroke-width="4" opacity="0.24" stroke-linecap="round"/>
      
      
    </g>
  
    <g>
      <rect x="225.5" y="804" width="62.75" height="57" rx="14" fill="url(#coveredTile)"/>
      <rect x="227.5" y="806" width="58.75" height="53" rx="12" fill="#d9b98b" opacity="0.16"/>
      <path d="M 236.795 819.96 C 251.855 810.84, 268.17 810.84, 278.21 819.96" stroke="#fff1c9" stroke-width="4" opacity="0.24" stroke-linecap="round"/>
      
      
    </g>
  
    <g>
      <rect x="294.25" y="804" width="62.75" height="57" rx="14" fill="url(#coveredTile)"/>
      <rect x="296.25" y="806" width="58.75" height="53" rx="12" fill="#d9b98b" opacity="0.16"/>
      <path d="M 305.545 819.96 C 320.605 810.84, 336.92 810.84, 346.96 819.96" stroke="#fff1c9" stroke-width="4" opacity="0.24" stroke-linecap="round"/>
      
      
    </g>
  
    <g>
      <rect x="363" y="804" width="62.75" height="57" rx="14" fill="url(#revealedTile)" opacity="0.5"/>
      <rect x="364.5" y="805.5" width="59.75" height="54" rx="12" fill="#e8d8b6" opacity="0.16"/>
      <text x="394.375" y="833.5" class="digit" fill="#5ec8ff">1</text>
    </g>
  
    <g>
      <rect x="431.75" y="804" width="62.75" height="57" rx="14" fill="url(#revealedTile)" opacity="0.5"/>
      <rect x="433.25" y="805.5" width="59.75" height="54" rx="12" fill="#e8d8b6" opacity="0.16"/>
      <text x="463.125" y="833.5" class="digit" fill="#5ec8ff">1</text>
    </g>
  
    <g>
      <rect x="500.5" y="804" width="62.75" height="57" rx="14" fill="url(#revealedTile)" opacity="0.5"/>
      <rect x="502" y="805.5" width="59.75" height="54" rx="12" fill="#e8d8b6" opacity="0.16"/>
      <text x="531.875" y="833.5" class="digit" fill="#5ec8ff">1</text>
    </g>
  
    <g>
      <rect x="569.25" y="804" width="62.75" height="57" rx="14" fill="url(#coveredTile)"/>
      <rect x="571.25" y="806" width="58.75" height="53" rx="12" fill="#d9b98b" opacity="0.16"/>
      <path d="M 580.545 819.96 C 595.605 810.84, 611.92 810.84, 621.96 819.96" stroke="#fff1c9" stroke-width="4" opacity="0.24" stroke-linecap="round"/>
      
      
    </g>
  
    <g>
      <rect x="88" y="867" width="62.75" height="57" rx="14" fill="url(#coveredTile)"/>
      <rect x="90" y="869" width="58.75" height="53" rx="12" fill="#d9b98b" opacity="0.16"/>
      <path d="M 99.295 882.96 C 114.355 873.84, 130.67000000000002 873.84, 140.71 882.96" stroke="#fff1c9" stroke-width="4" opacity="0.24" stroke-linecap="round"/>
      
      
    </g>
  
    <g>
      <rect x="156.75" y="867" width="62.75" height="57" rx="14" fill="url(#coveredTile)"/>
      <rect x="158.75" y="869" width="58.75" height="53" rx="12" fill="#d9b98b" opacity="0.16"/>
      <path d="M 168.045 882.96 C 183.105 873.84, 199.42000000000002 873.84, 209.46 882.96" stroke="#fff1c9" stroke-width="4" opacity="0.24" stroke-linecap="round"/>
      
      
    </g>
  
    <g>
      <rect x="225.5" y="867" width="62.75" height="57" rx="14" fill="url(#coveredTile)"/>
      <rect x="227.5" y="869" width="58.75" height="53" rx="12" fill="#d9b98b" opacity="0.16"/>
      <path d="M 236.795 882.96 C 251.855 873.84, 268.17 873.84, 278.21 882.96" stroke="#fff1c9" stroke-width="4" opacity="0.24" stroke-linecap="round"/>
      
      
    </g>
  
    <g>
      <rect x="294.25" y="867" width="62.75" height="57" rx="14" fill="url(#coveredTile)"/>
      <rect x="296.25" y="869" width="58.75" height="53" rx="12" fill="#d9b98b" opacity="0.16"/>
      <path d="M 305.545 882.96 C 320.605 873.84, 336.92 873.84, 346.96 882.96" stroke="#fff1c9" stroke-width="4" opacity="0.24" stroke-linecap="round"/>
      
      
    </g>
  
    <g>
      <rect x="363" y="867" width="62.75" height="57" rx="14" fill="url(#coveredTile)"/>
      <rect x="365" y="869" width="58.75" height="53" rx="12" fill="#d9b98b" opacity="0.16"/>
      <path d="M 374.295 882.96 C 389.355 873.84, 405.67 873.84, 415.71 882.96" stroke="#fff1c9" stroke-width="4" opacity="0.24" stroke-linecap="round"/>
      
      
    </g>
  
    <g>
      <rect x="431.75" y="867" width="62.75" height="57" rx="14" fill="url(#coveredTile)"/>
      <rect x="433.75" y="869" width="58.75" height="53" rx="12" fill="#d9b98b" opacity="0.16"/>
      <path d="M 443.045 882.96 C 458.105 873.84, 474.42 873.84, 484.46 882.96" stroke="#fff1c9" stroke-width="4" opacity="0.24" stroke-linecap="round"/>
      
      <polygon points="463.125,877.26 474.42,890.94 463.125,906.9 451.83,890.94" fill="#151110"/>
      <polygon points="462.4975,881.82 469.4,890.94 462.4975,900.06 455.595,890.94" fill="#ffb347"/>
      
      
    </g>
  
    <g>
      <rect x="500.5" y="867" width="62.75" height="57" rx="14" fill="url(#revealedTile)" opacity="0.5"/>
      <rect x="502" y="868.5" width="59.75" height="54" rx="12" fill="#e8d8b6" opacity="0.16"/>
      <text x="531.875" y="896.5" class="digit" fill="#5ec8ff">1</text>
    </g>
  
    <g>
      <rect x="569.25" y="867" width="62.75" height="57" rx="14" fill="url(#coveredTile)"/>
      <rect x="571.25" y="869" width="58.75" height="53" rx="12" fill="#d9b98b" opacity="0.16"/>
      <path d="M 580.545 882.96 C 595.605 873.84, 611.92 873.84, 621.96 882.96" stroke="#fff1c9" stroke-width="4" opacity="0.24" stroke-linecap="round"/>
      
      
    </g>
  </g>
  
      <circle cx="218.56" cy="505.92" r="10" fill="#ffd67c" opacity="0.9"/>
      <circle cx="218.56" cy="505.92" r="24" fill="#ffd67c" opacity="0.16"/>
      
      <circle cx="468.79999999999995" cy="593.28" r="10" fill="#ffd67c" opacity="0.9"/>
      <circle cx="468.79999999999995" cy="593.28" r="24" fill="#ffd67c" opacity="0.16"/>
      
      <circle cx="403.52" cy="774.24" r="10" fill="#ffd67c" opacity="0.9"/>
      <circle cx="403.52" cy="774.24" r="24" fill="#ffd67c" opacity="0.16"/>
      
  
</svg>