<?xml version="1.0" encoding="UTF-8"?>
<svg xmlns="http://www.w3.org/2000/svg" width="1600" height="900" viewBox="0 0 1600 900" fill="none">
  <defs>
    <linearGradient id="night" x1="0" y1="0" x2="1" y2="1">
      <stop offset="0%" stop-color="#0c0a16"/>
      <stop offset="58%" stop-color="#140f27"/>
      <stop offset="100%" stop-color="#1f1324"/>
    </linearGradient>
    <linearGradient id="boardFrame" x1="0" y1="0" x2="1" y2="1">
      <stop offset="0%" stop-color="#f0c875"/>
      <stop offset="100%" stop-color="#7d5b2a"/>
    </linearGradient>
    <linearGradient id="boardFill" x1="0" y1="0" x2="0" y2="1">
      <stop offset="0%" stop-color="#261d44"/>
      <stop offset="100%" stop-color="#120e24"/>
    </linearGradient>
    <linearGradient id="buttonFill" x1="0" y1="0" x2="1" y2="1">
      <stop offset="0%" stop-color="#fff3cb"/>
      <stop offset="100%" stop-color="#f4b353"/>
    </linearGradient>
    <linearGradient id="tokenShade" x1="0" y1="0" x2="1" y2="1">
      <stop offset="0%" stop-color="#ffffff"/>
      <stop offset="100%" stop-color="#120e24"/>
    </linearGradient>
    <filter id="boardGlow" x="-20%" y="-20%" width="140%" height="140%">
      <feGaussianBlur stdDeviation="18"/>
    </filter>
    <style>
      text {
        font-family: "Avenir Next", "Trebuchet MS", sans-serif;
      }
      .eyebrow {
        fill: #f0c875;
        font-size: 19px;
        font-weight: 700;
        letter-spacing: 0.32em;
      }
      .title {
        fill: #fff6de;
        font-size: 64px;
        font-weight: 800;
        letter-spacing: -0.03em;
      }
      .desktopTitle {
        fill: #fff6de;
        font-size: 34px;
        font-weight: 700;
        letter-spacing: 0.04em;
      }
      .subtitle {
        fill: #dddae8;
        font-size: 24px;
        font-weight: 500;
      }
      .hudLabel {
        fill: #f0c875;
        font-size: 20px;
        font-weight: 700;
        letter-spacing: 0.18em;
      }
      .hudValue {
        fill: #fff6de;
        font-size: 38px;
        font-weight: 800;
      }
      .combo {
        fill: #ffe7a6;
        font-size: 28px;
        font-weight: 800;
        letter-spacing: 0.22em;
      }
      .buttonLabel {
        fill: #1a1324;
        font-size: 32px;
        font-weight: 800;
      }
      .panelTitle {
        fill: #fff6de;
        font-size: 50px;
        font-weight: 800;
      }
      .panelCopy {
        fill: #d6d3e0;
        font-size: 24px;
        font-weight: 500;
      }
      .panelLabel {
        fill: #f0c875;
        font-size: 20px;
        font-weight: 700;
        letter-spacing: 0.18em;
      }
      .panelValue {
        fill: #fff6de;
        font-size: 66px;
        font-weight: 800;
      }
      .panelMiniValue {
        fill: #fff6de;
        font-size: 48px;
        font-weight: 800;
      }
    </style>
  </defs>


    <rect width="1600" height="900" fill="url(#night)"/>
    <circle cx="224.00000000000003" cy="162" r="224.00000000000003" fill="#3a2d7d" opacity="0.36"/>
    <circle cx="1376" cy="198" r="288" fill="#6b2b47" opacity="0.22"/>
    <circle cx="1088" cy="720" r="480" fill="#1b4f6b" opacity="0.18"/>
    <circle cx="192" cy="90" r="2.4" fill="#f7dfb8" opacity="0.75"/><circle cx="192" cy="90" r="8" fill="#f7dfb8" opacity="0.08"/>
<circle cx="384" cy="288" r="2.4" fill="#f7dfb8" opacity="0.75"/><circle cx="384" cy="288" r="8" fill="#f7dfb8" opacity="0.08"/>
<circle cx="1248" cy="108" r="2.4" fill="#f7dfb8" opacity="0.75"/><circle cx="1248" cy="108" r="8" fill="#f7dfb8" opacity="0.08"/>
<circle cx="1440" cy="270" r="2.4" fill="#f7dfb8" opacity="0.75"/><circle cx="1440" cy="270" r="8" fill="#f7dfb8" opacity="0.08"/>
<circle cx="1120" cy="576" r="2.4" fill="#f7dfb8" opacity="0.75"/><circle cx="1120" cy="576" r="8" fill="#f7dfb8" opacity="0.08"/>
<circle cx="288" cy="648" r="2.4" fill="#f7dfb8" opacity="0.75"/><circle cx="288" cy="648" r="8" fill="#f7dfb8" opacity="0.08"/>
<circle cx="672" cy="756" r="2.4" fill="#f7dfb8" opacity="0.75"/><circle cx="672" cy="756" r="8" fill="#f7dfb8" opacity="0.08"/>
<circle cx="1360" cy="792" r="2.4" fill="#f7dfb8" opacity="0.75"/><circle cx="1360" cy="792" r="8" fill="#f7dfb8" opacity="0.08"/>

    <g filter="url(#boardGlow)">
      <rect x="542" y="112" width="506" height="602" rx="42" fill="#1e1537" opacity="0.65"/>
    </g>
    <rect x="550" y="120" width="490" height="586" rx="36" fill="url(#boardFrame)"/>
    <rect x="560" y="130" width="470" height="566" rx="30" fill="url(#boardFill)"/>


    <rect x="560" y="138" width="86" height="86" rx="18.92" fill="#05040b" opacity="0.24"/>
    <rect x="560" y="130" width="86" height="86" rx="18.92" fill="#1f1a33" opacity="0.4"/>
    <rect x="564" y="134" width="78" height="78" rx="17.2" fill="#f7b64d" opacity="0.5"/>
    <rect x="570" y="140" width="66" height="66" rx="15.479999999999999" fill="url(#tokenShade)" opacity="0.25"/>
    <g transform="translate(583.22 153.22) scale(0.3956)" opacity="0.46">

    <circle cx="50" cy="50" r="18" fill="#fff8df"/>
    <g stroke="#fff8df" stroke-width="8" stroke-linecap="round">
      <path d="M50 6v18"/>
      <path d="M50 76v18"/>
      <path d="M6 50h18"/>
      <path d="M76 50h18"/>
      <path d="M20 20l13 13"/>
      <path d="M67 67l13 13"/>
      <path d="M20 80l13-13"/>
      <path d="M67 33l13-13"/>
    </g>

    </g>



    <rect x="656" y="138" width="86" height="86" rx="18.92" fill="#05040b" opacity="0.24"/>
    <rect x="656" y="130" width="86" height="86" rx="18.92" fill="#1f1a33" opacity="0.4"/>
    <rect x="660" y="134" width="78" height="78" rx="17.2" fill="#3fc7e9" opacity="0.5"/>
    <rect x="666" y="140" width="66" height="66" rx="15.479999999999999" fill="url(#tokenShade)" opacity="0.25"/>
    <g transform="translate(679.22 153.22) scale(0.3956)" opacity="0.46">

    <path d="M6 38c12-10 21-10 33 0s21 10 33 0 21-10 22-10" stroke="#ecfdff" stroke-width="8" stroke-linecap="round"/>
    <path d="M6 62c12-10 21-10 33 0s21 10 33 0 21-10 22-10" stroke="#ecfdff" stroke-width="8" stroke-linecap="round"/>

    </g>



    <rect x="752" y="138" width="86" height="86" rx="18.92" fill="#05040b" opacity="0.24"/>
    <rect x="752" y="130" width="86" height="86" rx="18.92" fill="#1f1a33" opacity="0.4"/>
    <rect x="756" y="134" width="78" height="78" rx="17.2" fill="#58d388" opacity="0.5"/>
    <rect x="762" y="140" width="66" height="66" rx="15.479999999999999" fill="url(#tokenShade)" opacity="0.25"/>
    <g transform="translate(775.22 153.22) scale(0.3956)" opacity="0.46">

    <path d="M18 58c0-22 18-40 40-40 10 0 19 4 26 10-1 30-24 54-54 54-7-7-12-15-12-24z" fill="#effff4"/>
    <path d="M26 72c18-20 29-31 48-48" stroke="#58d388" stroke-width="7" stroke-linecap="round"/>

    </g>



    <rect x="848" y="138" width="86" height="86" rx="18.92" fill="#05040b" opacity="0.24"/>
    <rect x="848" y="130" width="86" height="86" rx="18.92" fill="#1f1a33" opacity="0.4"/>
    <rect x="852" y="134" width="78" height="78" rx="17.2" fill="#ff6c66" opacity="0.5"/>
    <rect x="858" y="140" width="66" height="66" rx="15.479999999999999" fill="url(#tokenShade)" opacity="0.25"/>
    <g transform="translate(871.22 153.22) scale(0.3956)" opacity="0.46">

    <path d="M50 8c9 12 22 22 22 38 0 13-10 26-22 40-12-14-22-27-22-40 0-16 13-26 22-38z" fill="#fff2d9"/>
    <path d="M50 26c6 8 14 15 14 25 0 8-6 15-14 24-8-9-14-16-14-24 0-10 8-17 14-25z" fill="#ff8462"/>

    </g>



    <rect x="944" y="138" width="86" height="86" rx="18.92" fill="#05040b" opacity="0.24"/>
    <rect x="944" y="130" width="86" height="86" rx="18.92" fill="#1f1a33" opacity="0.4"/>
    <rect x="948" y="134" width="78" height="78" rx="17.2" fill="#8b8dff" opacity="0.5"/>
    <rect x="954" y="140" width="66" height="66" rx="15.479999999999999" fill="url(#tokenShade)" opacity="0.25"/>
    <g transform="translate(967.22 153.22) scale(0.3956)" opacity="0.46">

    <path d="M67 18c-6 2-18 9-18 28 0 17 12 24 18 26-7 9-17 14-30 14-23 0-41-18-41-40S14 6 37 6c14 0 24 4 30 12z" fill="#f4f2ff"/>
    <circle cx="54" cy="43" r="15" fill="#8b8dff"/>

    </g>



    <rect x="560" y="234" width="86" height="86" rx="18.92" fill="#05040b" opacity="0.24"/>
    <rect x="560" y="226" width="86" height="86" rx="18.92" fill="#1f1a33" opacity="0.4"/>
    <rect x="564" y="230" width="78" height="78" rx="17.2" fill="#58d388" opacity="0.5"/>
    <rect x="570" y="236" width="66" height="66" rx="15.479999999999999" fill="url(#tokenShade)" opacity="0.25"/>
    <g transform="translate(583.22 249.22) scale(0.3956)" opacity="0.46">

    <path d="M18 58c0-22 18-40 40-40 10 0 19 4 26 10-1 30-24 54-54 54-7-7-12-15-12-24z" fill="#effff4"/>
    <path d="M26 72c18-20 29-31 48-48" stroke="#58d388" stroke-width="7" stroke-linecap="round"/>

    </g>



    <rect x="656" y="234" width="86" height="86" rx="18.92" fill="#05040b" opacity="0.24"/>
    <rect x="656" y="226" width="86" height="86" rx="18.92" fill="#1f1a33" opacity="0.4"/>
    <rect x="660" y="230" width="78" height="78" rx="17.2" fill="#f7b64d" opacity="0.5"/>
    <rect x="666" y="236" width="66" height="66" rx="15.479999999999999" fill="url(#tokenShade)" opacity="0.25"/>
    <g transform="translate(679.22 249.22) scale(0.3956)" opacity="0.46">

    <circle cx="50" cy="50" r="18" fill="#fff8df"/>
    <g stroke="#fff8df" stroke-width="8" stroke-linecap="round">
      <path d="M50 6v18"/>
      <path d="M50 76v18"/>
      <path d="M6 50h18"/>
      <path d="M76 50h18"/>
      <path d="M20 20l13 13"/>
      <path d="M67 67l13 13"/>
      <path d="M20 80l13-13"/>
      <path d="M67 33l13-13"/>
    </g>

    </g>



    <rect x="752" y="234" width="86" height="86" rx="18.92" fill="#05040b" opacity="0.24"/>
    <rect x="752" y="226" width="86" height="86" rx="18.92" fill="#1f1a33" opacity="0.4"/>
    <rect x="756" y="230" width="78" height="78" rx="17.2" fill="#8b8dff" opacity="0.5"/>
    <rect x="762" y="236" width="66" height="66" rx="15.479999999999999" fill="url(#tokenShade)" opacity="0.25"/>
    <g transform="translate(775.22 249.22) scale(0.3956)" opacity="0.46">

    <path d="M67 18c-6 2-18 9-18 28 0 17 12 24 18 26-7 9-17 14-30 14-23 0-41-18-41-40S14 6 37 6c14 0 24 4 30 12z" fill="#f4f2ff"/>
    <circle cx="54" cy="43" r="15" fill="#8b8dff"/>

    </g>



    <rect x="848" y="234" width="86" height="86" rx="18.92" fill="#05040b" opacity="0.24"/>
    <rect x="848" y="226" width="86" height="86" rx="18.92" fill="#1f1a33" opacity="0.4"/>
    <rect x="852" y="230" width="78" height="78" rx="17.2" fill="#3fc7e9" opacity="0.5"/>
    <rect x="858" y="236" width="66" height="66" rx="15.479999999999999" fill="url(#tokenShade)" opacity="0.25"/>
    <g transform="translate(871.22 249.22) scale(0.3956)" opacity="0.46">

    <path d="M6 38c12-10 21-10 33 0s21 10 33 0 21-10 22-10" stroke="#ecfdff" stroke-width="8" stroke-linecap="round"/>
    <path d="M6 62c12-10 21-10 33 0s21 10 33 0 21-10 22-10" stroke="#ecfdff" stroke-width="8" stroke-linecap="round"/>

    </g>



    <rect x="944" y="234" width="86" height="86" rx="18.92" fill="#05040b" opacity="0.24"/>
    <rect x="944" y="226" width="86" height="86" rx="18.92" fill="#1f1a33" opacity="0.4"/>
    <rect x="948" y="230" width="78" height="78" rx="17.2" fill="#ff6c66" opacity="0.5"/>
    <rect x="954" y="236" width="66" height="66" rx="15.479999999999999" fill="url(#tokenShade)" opacity="0.25"/>
    <g transform="translate(967.22 249.22) scale(0.3956)" opacity="0.46">

    <path d="M50 8c9 12 22 22 22 38 0 13-10 26-22 40-12-14-22-27-22-40 0-16 13-26 22-38z" fill="#fff2d9"/>
    <path d="M50 26c6 8 14 15 14 25 0 8-6 15-14 24-8-9-14-16-14-24 0-10 8-17 14-25z" fill="#ff8462"/>

    </g>



    <rect x="560" y="330" width="86" height="86" rx="18.92" fill="#05040b" opacity="0.24"/>
    <rect x="560" y="322" width="86" height="86" rx="18.92" fill="#1f1a33" opacity="0.4"/>
    <rect x="564" y="326" width="78" height="78" rx="17.2" fill="#ff6c66" opacity="0.5"/>
    <rect x="570" y="332" width="66" height="66" rx="15.479999999999999" fill="url(#tokenShade)" opacity="0.25"/>
    <g transform="translate(583.22 345.22) scale(0.3956)" opacity="0.46">

    <path d="M50 8c9 12 22 22 22 38 0 13-10 26-22 40-12-14-22-27-22-40 0-16 13-26 22-38z" fill="#fff2d9"/>
    <path d="M50 26c6 8 14 15 14 25 0 8-6 15-14 24-8-9-14-16-14-24 0-10 8-17 14-25z" fill="#ff8462"/>

    </g>



    <rect x="656" y="330" width="86" height="86" rx="18.92" fill="#05040b" opacity="0.24"/>
    <rect x="656" y="322" width="86" height="86" rx="18.92" fill="#1f1a33" opacity="0.4"/>
    <rect x="660" y="326" width="78" height="78" rx="17.2" fill="#40384a" opacity="0.5"/>
    <rect x="666" y="332" width="66" height="66" rx="15.479999999999999" fill="url(#tokenShade)" opacity="0.25"/>
    <g transform="translate(679.22 345.22) scale(0.3956)" opacity="0.46">

    <path d="M16 28 38 14l28 10 18 24-12 30-32 8-20-18-4-24z" fill="#6b5a68"/>
    <path d="M28 30 54 42 38 76" stroke="#ff9f66" stroke-width="7" stroke-linecap="round"/>
    <path d="M54 42 74 60" stroke="#ff9f66" stroke-width="6" stroke-linecap="round"/>

    </g>



    <rect x="752" y="330" width="86" height="86" rx="18.92" fill="#05040b" opacity="0.24"/>
    <rect x="752" y="322" width="86" height="86" rx="18.92" fill="#1f1a33" opacity="0.4"/>
    <rect x="756" y="326" width="78" height="78" rx="17.2" fill="#f7b64d" opacity="0.5"/>
    <rect x="762" y="332" width="66" height="66" rx="15.479999999999999" fill="url(#tokenShade)" opacity="0.25"/>
    <g transform="translate(775.22 345.22) scale(0.3956)" opacity="0.46">

    <circle cx="50" cy="50" r="18" fill="#fff8df"/>
    <g stroke="#fff8df" stroke-width="8" stroke-linecap="round">
      <path d="M50 6v18"/>
      <path d="M50 76v18"/>
      <path d="M6 50h18"/>
      <path d="M76 50h18"/>
      <path d="M20 20l13 13"/>
      <path d="M67 67l13 13"/>
      <path d="M20 80l13-13"/>
      <path d="M67 33l13-13"/>
    </g>

    </g>



    <rect x="848" y="330" width="86" height="86" rx="18.92" fill="#05040b" opacity="0.24"/>
    <rect x="848" y="322" width="86" height="86" rx="18.92" fill="#1f1a33" opacity="0.4"/>
    <rect x="852" y="326" width="78" height="78" rx="17.2" fill="#58d388" opacity="0.5"/>
    <rect x="858" y="332" width="66" height="66" rx="15.479999999999999" fill="url(#tokenShade)" opacity="0.25"/>
    <g transform="translate(871.22 345.22) scale(0.3956)" opacity="0.46">

    <path d="M18 58c0-22 18-40 40-40 10 0 19 4 26 10-1 30-24 54-54 54-7-7-12-15-12-24z" fill="#effff4"/>
    <path d="M26 72c18-20 29-31 48-48" stroke="#58d388" stroke-width="7" stroke-linecap="round"/>

    </g>



    <rect x="944" y="330" width="86" height="86" rx="18.92" fill="#05040b" opacity="0.24"/>
    <rect x="944" y="322" width="86" height="86" rx="18.92" fill="#1f1a33" opacity="0.4"/>
    <rect x="948" y="326" width="78" height="78" rx="17.2" fill="#3fc7e9" opacity="0.5"/>
    <rect x="954" y="332" width="66" height="66" rx="15.479999999999999" fill="url(#tokenShade)" opacity="0.25"/>
    <g transform="translate(967.22 345.22) scale(0.3956)" opacity="0.46">

    <path d="M6 38c12-10 21-10 33 0s21 10 33 0 21-10 22-10" stroke="#ecfdff" stroke-width="8" stroke-linecap="round"/>
    <path d="M6 62c12-10 21-10 33 0s21 10 33 0 21-10 22-10" stroke="#ecfdff" stroke-width="8" stroke-linecap="round"/>

    </g>



    <rect x="560" y="426" width="86" height="86" rx="18.92" fill="#05040b" opacity="0.24"/>
    <rect x="560" y="418" width="86" height="86" rx="18.92" fill="#1f1a33" opacity="0.4"/>
    <rect x="564" y="422" width="78" height="78" rx="17.2" fill="#8b8dff" opacity="0.5"/>
    <rect x="570" y="428" width="66" height="66" rx="15.479999999999999" fill="url(#tokenShade)" opacity="0.25"/>
    <g transform="translate(583.22 441.22) scale(0.3956)" opacity="0.46">

    <path d="M67 18c-6 2-18 9-18 28 0 17 12 24 18 26-7 9-17 14-30 14-23 0-41-18-41-40S14 6 37 6c14 0 24 4 30 12z" fill="#f4f2ff"/>
    <circle cx="54" cy="43" r="15" fill="#8b8dff"/>

    </g>



    <rect x="656" y="426" width="86" height="86" rx="18.92" fill="#05040b" opacity="0.24"/>
    <rect x="656" y="418" width="86" height="86" rx="18.92" fill="#1f1a33" opacity="0.4"/>
    <rect x="660" y="422" width="78" height="78" rx="17.2" fill="#3fc7e9" opacity="0.5"/>
    <rect x="666" y="428" width="66" height="66" rx="15.479999999999999" fill="url(#tokenShade)" opacity="0.25"/>
    <g transform="translate(679.22 441.22) scale(0.3956)" opacity="0.46">

    <path d="M6 38c12-10 21-10 33 0s21 10 33 0 21-10 22-10" stroke="#ecfdff" stroke-width="8" stroke-linecap="round"/>
    <path d="M6 62c12-10 21-10 33 0s21 10 33 0 21-10 22-10" stroke="#ecfdff" stroke-width="8" stroke-linecap="round"/>

    </g>



    <rect x="752" y="426" width="86" height="86" rx="18.92" fill="#05040b" opacity="0.24"/>
    <rect x="752" y="418" width="86" height="86" rx="18.92" fill="#1f1a33" opacity="0.4"/>
    <rect x="756" y="422" width="78" height="78" rx="17.2" fill="#ff6c66" opacity="0.5"/>
    <rect x="762" y="428" width="66" height="66" rx="15.479999999999999" fill="url(#tokenShade)" opacity="0.25"/>
    <g transform="translate(775.22 441.22) scale(0.3956)" opacity="0.46">

    <path d="M50 8c9 12 22 22 22 38 0 13-10 26-22 40-12-14-22-27-22-40 0-16 13-26 22-38z" fill="#fff2d9"/>
    <path d="M50 26c6 8 14 15 14 25 0 8-6 15-14 24-8-9-14-16-14-24 0-10 8-17 14-25z" fill="#ff8462"/>

    </g>



    <rect x="848" y="426" width="86" height="86" rx="18.92" fill="#05040b" opacity="0.24"/>
    <rect x="848" y="418" width="86" height="86" rx="18.92" fill="#1f1a33" opacity="0.4"/>
    <rect x="852" y="422" width="78" height="78" rx="17.2" fill="#f7b64d" opacity="0.5"/>
    <rect x="858" y="428" width="66" height="66" rx="15.479999999999999" fill="url(#tokenShade)" opacity="0.25"/>
    <g transform="translate(871.22 441.22) scale(0.3956)" opacity="0.46">

    <circle cx="50" cy="50" r="18" fill="#fff8df"/>
    <g stroke="#fff8df" stroke-width="8" stroke-linecap="round">
      <path d="M50 6v18"/>
      <path d="M50 76v18"/>
      <path d="M6 50h18"/>
      <path d="M76 50h18"/>
      <path d="M20 20l13 13"/>
      <path d="M67 67l13 13"/>
      <path d="M20 80l13-13"/>
      <path d="M67 33l13-13"/>
    </g>

    </g>



    <rect x="944" y="426" width="86" height="86" rx="18.92" fill="#05040b" opacity="0.24"/>
    <rect x="944" y="418" width="86" height="86" rx="18.92" fill="#1f1a33" opacity="0.4"/>
    <rect x="948" y="422" width="78" height="78" rx="17.2" fill="#58d388" opacity="0.5"/>
    <rect x="954" y="428" width="66" height="66" rx="15.479999999999999" fill="url(#tokenShade)" opacity="0.25"/>
    <g transform="translate(967.22 441.22) scale(0.3956)" opacity="0.46">

    <path d="M18 58c0-22 18-40 40-40 10 0 19 4 26 10-1 30-24 54-54 54-7-7-12-15-12-24z" fill="#effff4"/>
    <path d="M26 72c18-20 29-31 48-48" stroke="#58d388" stroke-width="7" stroke-linecap="round"/>

    </g>



    <rect x="560" y="522" width="86" height="86" rx="18.92" fill="#05040b" opacity="0.24"/>
    <rect x="560" y="514" width="86" height="86" rx="18.92" fill="#1f1a33" opacity="0.4"/>
    <rect x="564" y="518" width="78" height="78" rx="17.2" fill="#58d388" opacity="0.5"/>
    <rect x="570" y="524" width="66" height="66" rx="15.479999999999999" fill="url(#tokenShade)" opacity="0.25"/>
    <g transform="translate(583.22 537.22) scale(0.3956)" opacity="0.46">

    <path d="M18 58c0-22 18-40 40-40 10 0 19 4 26 10-1 30-24 54-54 54-7-7-12-15-12-24z" fill="#effff4"/>
    <path d="M26 72c18-20 29-31 48-48" stroke="#58d388" stroke-width="7" stroke-linecap="round"/>

    </g>



    <rect x="656" y="522" width="86" height="86" rx="18.92" fill="#05040b" opacity="0.24"/>
    <rect x="656" y="514" width="86" height="86" rx="18.92" fill="#1f1a33" opacity="0.4"/>
    <rect x="660" y="518" width="78" height="78" rx="17.2" fill="#ff6c66" opacity="0.5"/>
    <rect x="666" y="524" width="66" height="66" rx="15.479999999999999" fill="url(#tokenShade)" opacity="0.25"/>
    <g transform="translate(679.22 537.22) scale(0.3956)" opacity="0.46">

    <path d="M50 8c9 12 22 22 22 38 0 13-10 26-22 40-12-14-22-27-22-40 0-16 13-26 22-38z" fill="#fff2d9"/>
    <path d="M50 26c6 8 14 15 14 25 0 8-6 15-14 24-8-9-14-16-14-24 0-10 8-17 14-25z" fill="#ff8462"/>

    </g>



    <rect x="752" y="522" width="86" height="86" rx="18.92" fill="#05040b" opacity="0.24"/>
    <rect x="752" y="514" width="86" height="86" rx="18.92" fill="#1f1a33" opacity="0.4"/>
    <rect x="756" y="518" width="78" height="78" rx="17.2" fill="#40384a" opacity="0.5"/>
    <rect x="762" y="524" width="66" height="66" rx="15.479999999999999" fill="url(#tokenShade)" opacity="0.25"/>
    <g transform="translate(775.22 537.22) scale(0.3956)" opacity="0.46">

    <path d="M16 28 38 14l28 10 18 24-12 30-32 8-20-18-4-24z" fill="#6b5a68"/>
    <path d="M28 30 54 42 38 76" stroke="#ff9f66" stroke-width="7" stroke-linecap="round"/>
    <path d="M54 42 74 60" stroke="#ff9f66" stroke-width="6" stroke-linecap="round"/>

    </g>



    <rect x="848" y="522" width="86" height="86" rx="18.92" fill="#05040b" opacity="0.24"/>
    <rect x="848" y="514" width="86" height="86" rx="18.92" fill="#1f1a33" opacity="0.4"/>
    <rect x="852" y="518" width="78" height="78" rx="17.2" fill="#8b8dff" opacity="0.5"/>
    <rect x="858" y="524" width="66" height="66" rx="15.479999999999999" fill="url(#tokenShade)" opacity="0.25"/>
    <g transform="translate(871.22 537.22) scale(0.3956)" opacity="0.46">

    <path d="M67 18c-6 2-18 9-18 28 0 17 12 24 18 26-7 9-17 14-30 14-23 0-41-18-41-40S14 6 37 6c14 0 24 4 30 12z" fill="#f4f2ff"/>
    <circle cx="54" cy="43" r="15" fill="#8b8dff"/>

    </g>



    <rect x="944" y="522" width="86" height="86" rx="18.92" fill="#05040b" opacity="0.24"/>
    <rect x="944" y="514" width="86" height="86" rx="18.92" fill="#1f1a33" opacity="0.4"/>
    <rect x="948" y="518" width="78" height="78" rx="17.2" fill="#f7b64d" opacity="0.5"/>
    <rect x="954" y="524" width="66" height="66" rx="15.479999999999999" fill="url(#tokenShade)" opacity="0.25"/>
    <g transform="translate(967.22 537.22) scale(0.3956)" opacity="0.46">

    <circle cx="50" cy="50" r="18" fill="#fff8df"/>
    <g stroke="#fff8df" stroke-width="8" stroke-linecap="round">
      <path d="M50 6v18"/>
      <path d="M50 76v18"/>
      <path d="M6 50h18"/>
      <path d="M76 50h18"/>
      <path d="M20 20l13 13"/>
      <path d="M67 67l13 13"/>
      <path d="M20 80l13-13"/>
      <path d="M67 33l13-13"/>
    </g>

    </g>



    <rect x="560" y="618" width="86" height="86" rx="18.92" fill="#05040b" opacity="0.24"/>
    <rect x="560" y="610" width="86" height="86" rx="18.92" fill="#1f1a33" opacity="0.4"/>
    <rect x="564" y="614" width="78" height="78" rx="17.2" fill="#3fc7e9" opacity="0.5"/>
    <rect x="570" y="620" width="66" height="66" rx="15.479999999999999" fill="url(#tokenShade)" opacity="0.25"/>
    <g transform="translate(583.22 633.22) scale(0.3956)" opacity="0.46">

    <path d="M6 38c12-10 21-10 33 0s21 10 33 0 21-10 22-10" stroke="#ecfdff" stroke-width="8" stroke-linecap="round"/>
    <path d="M6 62c12-10 21-10 33 0s21 10 33 0 21-10 22-10" stroke="#ecfdff" stroke-width="8" stroke-linecap="round"/>

    </g>



    <rect x="656" y="618" width="86" height="86" rx="18.92" fill="#05040b" opacity="0.24"/>
    <rect x="656" y="610" width="86" height="86" rx="18.92" fill="#1f1a33" opacity="0.4"/>
    <rect x="660" y="614" width="78" height="78" rx="17.2" fill="#f7b64d" opacity="0.5"/>
    <rect x="666" y="620" width="66" height="66" rx="15.479999999999999" fill="url(#tokenShade)" opacity="0.25"/>
    <g transform="translate(679.22 633.22) scale(0.3956)" opacity="0.46">

    <circle cx="50" cy="50" r="18" fill="#fff8df"/>
    <g stroke="#fff8df" stroke-width="8" stroke-linecap="round">
      <path d="M50 6v18"/>
      <path d="M50 76v18"/>
      <path d="M6 50h18"/>
      <path d="M76 50h18"/>
      <path d="M20 20l13 13"/>
      <path d="M67 67l13 13"/>
      <path d="M20 80l13-13"/>
      <path d="M67 33l13-13"/>
    </g>

    </g>



    <rect x="752" y="618" width="86" height="86" rx="18.92" fill="#05040b" opacity="0.24"/>
    <rect x="752" y="610" width="86" height="86" rx="18.92" fill="#1f1a33" opacity="0.4"/>
    <rect x="756" y="614" width="78" height="78" rx="17.2" fill="#58d388" opacity="0.5"/>
    <rect x="762" y="620" width="66" height="66" rx="15.479999999999999" fill="url(#tokenShade)" opacity="0.25"/>
    <g transform="translate(775.22 633.22) scale(0.3956)" opacity="0.46">

    <path d="M18 58c0-22 18-40 40-40 10 0 19 4 26 10-1 30-24 54-54 54-7-7-12-15-12-24z" fill="#effff4"/>
    <path d="M26 72c18-20 29-31 48-48" stroke="#58d388" stroke-width="7" stroke-linecap="round"/>

    </g>



    <rect x="848" y="618" width="86" height="86" rx="18.92" fill="#05040b" opacity="0.24"/>
    <rect x="848" y="610" width="86" height="86" rx="18.92" fill="#1f1a33" opacity="0.4"/>
    <rect x="852" y="614" width="78" height="78" rx="17.2" fill="#ff6c66" opacity="0.5"/>
    <rect x="858" y="620" width="66" height="66" rx="15.479999999999999" fill="url(#tokenShade)" opacity="0.25"/>
    <g transform="translate(871.22 633.22) scale(0.3956)" opacity="0.46">

    <path d="M50 8c9 12 22 22 22 38 0 13-10 26-22 40-12-14-22-27-22-40 0-16 13-26 22-38z" fill="#fff2d9"/>
    <path d="M50 26c6 8 14 15 14 25 0 8-6 15-14 24-8-9-14-16-14-24 0-10 8-17 14-25z" fill="#ff8462"/>

    </g>



    <rect x="944" y="618" width="86" height="86" rx="18.92" fill="#05040b" opacity="0.24"/>
    <rect x="944" y="610" width="86" height="86" rx="18.92" fill="#1f1a33" opacity="0.4"/>
    <rect x="948" y="614" width="78" height="78" rx="17.2" fill="#8b8dff" opacity="0.5"/>
    <rect x="954" y="620" width="66" height="66" rx="15.479999999999999" fill="url(#tokenShade)" opacity="0.25"/>
    <g transform="translate(967.22 633.22) scale(0.3956)" opacity="0.46">

    <path d="M67 18c-6 2-18 9-18 28 0 17 12 24 18 26-7 9-17 14-30 14-23 0-41-18-41-40S14 6 37 6c14 0 24 4 30 12z" fill="#f4f2ff"/>
    <circle cx="54" cy="43" r="15" fill="#8b8dff"/>

    </g>


    <g transform="translate(368 120)">
      <rect width="864" height="660" rx="40" fill="#0f0b1f" opacity="0.72"/>
      <rect x="18" y="18" width="828" height="624" rx="32" fill="#16102d" opacity="0.94"/>
      <text x="432" y="144" text-anchor="middle" class="panelTitle">Ash Took The Shrine</text>
      <text x="432" y="194" text-anchor="middle" class="panelCopy">The best runs stay calm until the last four moves.</text>
      <text x="270" y="356" text-anchor="middle" class="panelLabel">RUN SCORE</text>
      <text x="270" y="432" text-anchor="middle" class="panelValue">18,420</text>
      <text x="594" y="356" text-anchor="middle" class="panelLabel">BEST</text>
      <text x="594" y="432" text-anchor="middle" class="panelValue">22,180</text>
      <g transform="translate(298 500)">
        <rect width="268" height="84" rx="24" fill="#f0c875"/>
        <rect x="6" y="6" width="256" height="72" rx="20" fill="url(#buttonFill)" opacity="0.95"/>
        <text x="134" y="52" text-anchor="middle" class="buttonLabel">Fold Again</text>
      </g>
    </g>

</svg>
