<?xml version="1.0" encoding="UTF-8"?>
<svg xmlns="http://www.w3.org/2000/svg" width="720" height="1280" viewBox="0 0 720 1280" fill="none">
  <defs>
    <linearGradient id="night" x1="0" y1="0" x2="1" y2="1">
      <stop offset="0%" stop-color="#0c0a16"/>
      <stop offset="58%" stop-color="#140f27"/>
      <stop offset="100%" stop-color="#1f1324"/>
    </linearGradient>
    <linearGradient id="boardFrame" x1="0" y1="0" x2="1" y2="1">
      <stop offset="0%" stop-color="#f0c875"/>
      <stop offset="100%" stop-color="#7d5b2a"/>
    </linearGradient>
    <linearGradient id="boardFill" x1="0" y1="0" x2="0" y2="1">
      <stop offset="0%" stop-color="#261d44"/>
      <stop offset="100%" stop-color="#120e24"/>
    </linearGradient>
    <linearGradient id="buttonFill" x1="0" y1="0" x2="1" y2="1">
      <stop offset="0%" stop-color="#fff3cb"/>
      <stop offset="100%" stop-color="#f4b353"/>
    </linearGradient>
    <linearGradient id="tokenShade" x1="0" y1="0" x2="1" y2="1">
      <stop offset="0%" stop-color="#ffffff"/>
      <stop offset="100%" stop-color="#120e24"/>
    </linearGradient>
    <filter id="boardGlow" x="-20%" y="-20%" width="140%" height="140%">
      <feGaussianBlur stdDeviation="18"/>
    </filter>
    <style>
      text {
        font-family: "Avenir Next", "Trebuchet MS", sans-serif;
      }
      .eyebrow {
        fill: #f0c875;
        font-size: 19px;
        font-weight: 700;
        letter-spacing: 0.32em;
      }
      .title {
        fill: #fff6de;
        font-size: 64px;
        font-weight: 800;
        letter-spacing: -0.03em;
      }
      .desktopTitle {
        fill: #fff6de;
        font-size: 34px;
        font-weight: 700;
        letter-spacing: 0.04em;
      }
      .subtitle {
        fill: #dddae8;
        font-size: 24px;
        font-weight: 500;
      }
      .hudLabel {
        fill: #f0c875;
        font-size: 20px;
        font-weight: 700;
        letter-spacing: 0.18em;
      }
      .hudValue {
        fill: #fff6de;
        font-size: 38px;
        font-weight: 800;
      }
      .combo {
        fill: #ffe7a6;
        font-size: 28px;
        font-weight: 800;
        letter-spacing: 0.22em;
      }
      .buttonLabel {
        fill: #1a1324;
        font-size: 32px;
        font-weight: 800;
      }
      .panelTitle {
        fill: #fff6de;
        font-size: 50px;
        font-weight: 800;
      }
      .panelCopy {
        fill: #d6d3e0;
        font-size: 24px;
        font-weight: 500;
      }
      .panelLabel {
        fill: #f0c875;
        font-size: 20px;
        font-weight: 700;
        letter-spacing: 0.18em;
      }
      .panelValue {
        fill: #fff6de;
        font-size: 66px;
        font-weight: 800;
      }
      .panelMiniValue {
        fill: #fff6de;
        font-size: 48px;
        font-weight: 800;
      }
    </style>
  </defs>


    <rect width="720" height="1280" fill="url(#night)"/>
    <circle cx="100.80000000000001" cy="230.39999999999998" r="100.80000000000001" fill="#3a2d7d" opacity="0.36"/>
    <circle cx="619.2" cy="281.6" r="129.6" fill="#6b2b47" opacity="0.22"/>
    <circle cx="489.6" cy="1024" r="216" fill="#1b4f6b" opacity="0.18"/>
    <circle cx="86.39999999999999" cy="128" r="2.4" fill="#f7dfb8" opacity="0.75"/><circle cx="86.39999999999999" cy="128" r="8" fill="#f7dfb8" opacity="0.08"/>
<circle cx="172.79999999999998" cy="409.6" r="2.4" fill="#f7dfb8" opacity="0.75"/><circle cx="172.79999999999998" cy="409.6" r="8" fill="#f7dfb8" opacity="0.08"/>
<circle cx="561.6" cy="153.6" r="2.4" fill="#f7dfb8" opacity="0.75"/><circle cx="561.6" cy="153.6" r="8" fill="#f7dfb8" opacity="0.08"/>
<circle cx="648" cy="384" r="2.4" fill="#f7dfb8" opacity="0.75"/><circle cx="648" cy="384" r="8" fill="#f7dfb8" opacity="0.08"/>
<circle cx="503.99999999999994" cy="819.2" r="2.4" fill="#f7dfb8" opacity="0.75"/><circle cx="503.99999999999994" cy="819.2" r="8" fill="#f7dfb8" opacity="0.08"/>
<circle cx="129.6" cy="921.5999999999999" r="2.4" fill="#f7dfb8" opacity="0.75"/><circle cx="129.6" cy="921.5999999999999" r="8" fill="#f7dfb8" opacity="0.08"/>
<circle cx="302.4" cy="1075.2" r="2.4" fill="#f7dfb8" opacity="0.75"/><circle cx="302.4" cy="1075.2" r="8" fill="#f7dfb8" opacity="0.08"/>
<circle cx="612" cy="1126.4" r="2.4" fill="#f7dfb8" opacity="0.75"/><circle cx="612" cy="1126.4" r="8" fill="#f7dfb8" opacity="0.08"/>

    <g filter="url(#boardGlow)">
      <rect x="42" y="232" width="624" height="744" rx="42" fill="#1e1537" opacity="0.65"/>
    </g>
    <rect x="50" y="240" width="608" height="728" rx="36" fill="url(#boardFrame)"/>
    <rect x="60" y="250" width="588" height="708" rx="30" fill="url(#boardFill)"/>


    <rect x="60" y="258" width="108" height="108" rx="23.76" fill="#05040b" opacity="0.24"/>
    <rect x="60" y="250" width="108" height="108" rx="23.76" fill="#1f1a33" opacity="0.4"/>
    <rect x="64" y="254" width="100" height="100" rx="21.6" fill="#f7b64d" opacity="0.5"/>
    <rect x="70" y="260" width="88" height="88" rx="19.439999999999998" fill="url(#tokenShade)" opacity="0.25"/>
    <g transform="translate(89.16 279.16) scale(0.4968)" opacity="0.46">

    <circle cx="50" cy="50" r="18" fill="#fff8df"/>
    <g stroke="#fff8df" stroke-width="8" stroke-linecap="round">
      <path d="M50 6v18"/>
      <path d="M50 76v18"/>
      <path d="M6 50h18"/>
      <path d="M76 50h18"/>
      <path d="M20 20l13 13"/>
      <path d="M67 67l13 13"/>
      <path d="M20 80l13-13"/>
      <path d="M67 33l13-13"/>
    </g>

    </g>



    <rect x="180" y="258" width="108" height="108" rx="23.76" fill="#05040b" opacity="0.24"/>
    <rect x="180" y="250" width="108" height="108" rx="23.76" fill="#1f1a33" opacity="0.4"/>
    <rect x="184" y="254" width="100" height="100" rx="21.6" fill="#3fc7e9" opacity="0.5"/>
    <rect x="190" y="260" width="88" height="88" rx="19.439999999999998" fill="url(#tokenShade)" opacity="0.25"/>
    <g transform="translate(209.16 279.16) scale(0.4968)" opacity="0.46">

    <path d="M6 38c12-10 21-10 33 0s21 10 33 0 21-10 22-10" stroke="#ecfdff" stroke-width="8" stroke-linecap="round"/>
    <path d="M6 62c12-10 21-10 33 0s21 10 33 0 21-10 22-10" stroke="#ecfdff" stroke-width="8" stroke-linecap="round"/>

    </g>



    <rect x="300" y="258" width="108" height="108" rx="23.76" fill="#05040b" opacity="0.24"/>
    <rect x="300" y="250" width="108" height="108" rx="23.76" fill="#1f1a33" opacity="0.4"/>
    <rect x="304" y="254" width="100" height="100" rx="21.6" fill="#58d388" opacity="0.5"/>
    <rect x="310" y="260" width="88" height="88" rx="19.439999999999998" fill="url(#tokenShade)" opacity="0.25"/>
    <g transform="translate(329.16 279.16) scale(0.4968)" opacity="0.46">

    <path d="M18 58c0-22 18-40 40-40 10 0 19 4 26 10-1 30-24 54-54 54-7-7-12-15-12-24z" fill="#effff4"/>
    <path d="M26 72c18-20 29-31 48-48" stroke="#58d388" stroke-width="7" stroke-linecap="round"/>

    </g>



    <rect x="420" y="258" width="108" height="108" rx="23.76" fill="#05040b" opacity="0.24"/>
    <rect x="420" y="250" width="108" height="108" rx="23.76" fill="#1f1a33" opacity="0.4"/>
    <rect x="424" y="254" width="100" height="100" rx="21.6" fill="#ff6c66" opacity="0.5"/>
    <rect x="430" y="260" width="88" height="88" rx="19.439999999999998" fill="url(#tokenShade)" opacity="0.25"/>
    <g transform="translate(449.16 279.16) scale(0.4968)" opacity="0.46">

    <path d="M50 8c9 12 22 22 22 38 0 13-10 26-22 40-12-14-22-27-22-40 0-16 13-26 22-38z" fill="#fff2d9"/>
    <path d="M50 26c6 8 14 15 14 25 0 8-6 15-14 24-8-9-14-16-14-24 0-10 8-17 14-25z" fill="#ff8462"/>

    </g>



    <rect x="540" y="258" width="108" height="108" rx="23.76" fill="#05040b" opacity="0.24"/>
    <rect x="540" y="250" width="108" height="108" rx="23.76" fill="#1f1a33" opacity="0.4"/>
    <rect x="544" y="254" width="100" height="100" rx="21.6" fill="#8b8dff" opacity="0.5"/>
    <rect x="550" y="260" width="88" height="88" rx="19.439999999999998" fill="url(#tokenShade)" opacity="0.25"/>
    <g transform="translate(569.16 279.16) scale(0.4968)" opacity="0.46">

    <path d="M67 18c-6 2-18 9-18 28 0 17 12 24 18 26-7 9-17 14-30 14-23 0-41-18-41-40S14 6 37 6c14 0 24 4 30 12z" fill="#f4f2ff"/>
    <circle cx="54" cy="43" r="15" fill="#8b8dff"/>

    </g>



    <rect x="60" y="378" width="108" height="108" rx="23.76" fill="#05040b" opacity="0.24"/>
    <rect x="60" y="370" width="108" height="108" rx="23.76" fill="#1f1a33" opacity="0.4"/>
    <rect x="64" y="374" width="100" height="100" rx="21.6" fill="#58d388" opacity="0.5"/>
    <rect x="70" y="380" width="88" height="88" rx="19.439999999999998" fill="url(#tokenShade)" opacity="0.25"/>
    <g transform="translate(89.16 399.16) scale(0.4968)" opacity="0.46">

    <path d="M18 58c0-22 18-40 40-40 10 0 19 4 26 10-1 30-24 54-54 54-7-7-12-15-12-24z" fill="#effff4"/>
    <path d="M26 72c18-20 29-31 48-48" stroke="#58d388" stroke-width="7" stroke-linecap="round"/>

    </g>



    <rect x="180" y="378" width="108" height="108" rx="23.76" fill="#05040b" opacity="0.24"/>
    <rect x="180" y="370" width="108" height="108" rx="23.76" fill="#1f1a33" opacity="0.4"/>
    <rect x="184" y="374" width="100" height="100" rx="21.6" fill="#f7b64d" opacity="0.5"/>
    <rect x="190" y="380" width="88" height="88" rx="19.439999999999998" fill="url(#tokenShade)" opacity="0.25"/>
    <g transform="translate(209.16 399.16) scale(0.4968)" opacity="0.46">

    <circle cx="50" cy="50" r="18" fill="#fff8df"/>
    <g stroke="#fff8df" stroke-width="8" stroke-linecap="round">
      <path d="M50 6v18"/>
      <path d="M50 76v18"/>
      <path d="M6 50h18"/>
      <path d="M76 50h18"/>
      <path d="M20 20l13 13"/>
      <path d="M67 67l13 13"/>
      <path d="M20 80l13-13"/>
      <path d="M67 33l13-13"/>
    </g>

    </g>



    <rect x="300" y="378" width="108" height="108" rx="23.76" fill="#05040b" opacity="0.24"/>
    <rect x="300" y="370" width="108" height="108" rx="23.76" fill="#1f1a33" opacity="0.4"/>
    <rect x="304" y="374" width="100" height="100" rx="21.6" fill="#8b8dff" opacity="0.5"/>
    <rect x="310" y="380" width="88" height="88" rx="19.439999999999998" fill="url(#tokenShade)" opacity="0.25"/>
    <g transform="translate(329.16 399.16) scale(0.4968)" opacity="0.46">

    <path d="M67 18c-6 2-18 9-18 28 0 17 12 24 18 26-7 9-17 14-30 14-23 0-41-18-41-40S14 6 37 6c14 0 24 4 30 12z" fill="#f4f2ff"/>
    <circle cx="54" cy="43" r="15" fill="#8b8dff"/>

    </g>



    <rect x="420" y="378" width="108" height="108" rx="23.76" fill="#05040b" opacity="0.24"/>
    <rect x="420" y="370" width="108" height="108" rx="23.76" fill="#1f1a33" opacity="0.4"/>
    <rect x="424" y="374" width="100" height="100" rx="21.6" fill="#3fc7e9" opacity="0.5"/>
    <rect x="430" y="380" width="88" height="88" rx="19.439999999999998" fill="url(#tokenShade)" opacity="0.25"/>
    <g transform="translate(449.16 399.16) scale(0.4968)" opacity="0.46">

    <path d="M6 38c12-10 21-10 33 0s21 10 33 0 21-10 22-10" stroke="#ecfdff" stroke-width="8" stroke-linecap="round"/>
    <path d="M6 62c12-10 21-10 33 0s21 10 33 0 21-10 22-10" stroke="#ecfdff" stroke-width="8" stroke-linecap="round"/>

    </g>



    <rect x="540" y="378" width="108" height="108" rx="23.76" fill="#05040b" opacity="0.24"/>
    <rect x="540" y="370" width="108" height="108" rx="23.76" fill="#1f1a33" opacity="0.4"/>
    <rect x="544" y="374" width="100" height="100" rx="21.6" fill="#ff6c66" opacity="0.5"/>
    <rect x="550" y="380" width="88" height="88" rx="19.439999999999998" fill="url(#tokenShade)" opacity="0.25"/>
    <g transform="translate(569.16 399.16) scale(0.4968)" opacity="0.46">

    <path d="M50 8c9 12 22 22 22 38 0 13-10 26-22 40-12-14-22-27-22-40 0-16 13-26 22-38z" fill="#fff2d9"/>
    <path d="M50 26c6 8 14 15 14 25 0 8-6 15-14 24-8-9-14-16-14-24 0-10 8-17 14-25z" fill="#ff8462"/>

    </g>



    <rect x="60" y="498" width="108" height="108" rx="23.76" fill="#05040b" opacity="0.24"/>
    <rect x="60" y="490" width="108" height="108" rx="23.76" fill="#1f1a33" opacity="0.4"/>
    <rect x="64" y="494" width="100" height="100" rx="21.6" fill="#ff6c66" opacity="0.5"/>
    <rect x="70" y="500" width="88" height="88" rx="19.439999999999998" fill="url(#tokenShade)" opacity="0.25"/>
    <g transform="translate(89.16 519.16) scale(0.4968)" opacity="0.46">

    <path d="M50 8c9 12 22 22 22 38 0 13-10 26-22 40-12-14-22-27-22-40 0-16 13-26 22-38z" fill="#fff2d9"/>
    <path d="M50 26c6 8 14 15 14 25 0 8-6 15-14 24-8-9-14-16-14-24 0-10 8-17 14-25z" fill="#ff8462"/>

    </g>



    <rect x="180" y="498" width="108" height="108" rx="23.76" fill="#05040b" opacity="0.24"/>
    <rect x="180" y="490" width="108" height="108" rx="23.76" fill="#1f1a33" opacity="0.4"/>
    <rect x="184" y="494" width="100" height="100" rx="21.6" fill="#40384a" opacity="0.5"/>
    <rect x="190" y="500" width="88" height="88" rx="19.439999999999998" fill="url(#tokenShade)" opacity="0.25"/>
    <g transform="translate(209.16 519.16) scale(0.4968)" opacity="0.46">

    <path d="M16 28 38 14l28 10 18 24-12 30-32 8-20-18-4-24z" fill="#6b5a68"/>
    <path d="M28 30 54 42 38 76" stroke="#ff9f66" stroke-width="7" stroke-linecap="round"/>
    <path d="M54 42 74 60" stroke="#ff9f66" stroke-width="6" stroke-linecap="round"/>

    </g>



    <rect x="300" y="498" width="108" height="108" rx="23.76" fill="#05040b" opacity="0.24"/>
    <rect x="300" y="490" width="108" height="108" rx="23.76" fill="#1f1a33" opacity="0.4"/>
    <rect x="304" y="494" width="100" height="100" rx="21.6" fill="#f7b64d" opacity="0.5"/>
    <rect x="310" y="500" width="88" height="88" rx="19.439999999999998" fill="url(#tokenShade)" opacity="0.25"/>
    <g transform="translate(329.16 519.16) scale(0.4968)" opacity="0.46">

    <circle cx="50" cy="50" r="18" fill="#fff8df"/>
    <g stroke="#fff8df" stroke-width="8" stroke-linecap="round">
      <path d="M50 6v18"/>
      <path d="M50 76v18"/>
      <path d="M6 50h18"/>
      <path d="M76 50h18"/>
      <path d="M20 20l13 13"/>
      <path d="M67 67l13 13"/>
      <path d="M20 80l13-13"/>
      <path d="M67 33l13-13"/>
    </g>

    </g>



    <rect x="420" y="498" width="108" height="108" rx="23.76" fill="#05040b" opacity="0.24"/>
    <rect x="420" y="490" width="108" height="108" rx="23.76" fill="#1f1a33" opacity="0.4"/>
    <rect x="424" y="494" width="100" height="100" rx="21.6" fill="#58d388" opacity="0.5"/>
    <rect x="430" y="500" width="88" height="88" rx="19.439999999999998" fill="url(#tokenShade)" opacity="0.25"/>
    <g transform="translate(449.16 519.16) scale(0.4968)" opacity="0.46">

    <path d="M18 58c0-22 18-40 40-40 10 0 19 4 26 10-1 30-24 54-54 54-7-7-12-15-12-24z" fill="#effff4"/>
    <path d="M26 72c18-20 29-31 48-48" stroke="#58d388" stroke-width="7" stroke-linecap="round"/>

    </g>



    <rect x="540" y="498" width="108" height="108" rx="23.76" fill="#05040b" opacity="0.24"/>
    <rect x="540" y="490" width="108" height="108" rx="23.76" fill="#1f1a33" opacity="0.4"/>
    <rect x="544" y="494" width="100" height="100" rx="21.6" fill="#3fc7e9" opacity="0.5"/>
    <rect x="550" y="500" width="88" height="88" rx="19.439999999999998" fill="url(#tokenShade)" opacity="0.25"/>
    <g transform="translate(569.16 519.16) scale(0.4968)" opacity="0.46">

    <path d="M6 38c12-10 21-10 33 0s21 10 33 0 21-10 22-10" stroke="#ecfdff" stroke-width="8" stroke-linecap="round"/>
    <path d="M6 62c12-10 21-10 33 0s21 10 33 0 21-10 22-10" stroke="#ecfdff" stroke-width="8" stroke-linecap="round"/>

    </g>



    <rect x="60" y="618" width="108" height="108" rx="23.76" fill="#05040b" opacity="0.24"/>
    <rect x="60" y="610" width="108" height="108" rx="23.76" fill="#1f1a33" opacity="0.4"/>
    <rect x="64" y="614" width="100" height="100" rx="21.6" fill="#8b8dff" opacity="0.5"/>
    <rect x="70" y="620" width="88" height="88" rx="19.439999999999998" fill="url(#tokenShade)" opacity="0.25"/>
    <g transform="translate(89.16 639.16) scale(0.4968)" opacity="0.46">

    <path d="M67 18c-6 2-18 9-18 28 0 17 12 24 18 26-7 9-17 14-30 14-23 0-41-18-41-40S14 6 37 6c14 0 24 4 30 12z" fill="#f4f2ff"/>
    <circle cx="54" cy="43" r="15" fill="#8b8dff"/>

    </g>



    <rect x="180" y="618" width="108" height="108" rx="23.76" fill="#05040b" opacity="0.24"/>
    <rect x="180" y="610" width="108" height="108" rx="23.76" fill="#1f1a33" opacity="0.4"/>
    <rect x="184" y="614" width="100" height="100" rx="21.6" fill="#3fc7e9" opacity="0.5"/>
    <rect x="190" y="620" width="88" height="88" rx="19.439999999999998" fill="url(#tokenShade)" opacity="0.25"/>
    <g transform="translate(209.16 639.16) scale(0.4968)" opacity="0.46">

    <path d="M6 38c12-10 21-10 33 0s21 10 33 0 21-10 22-10" stroke="#ecfdff" stroke-width="8" stroke-linecap="round"/>
    <path d="M6 62c12-10 21-10 33 0s21 10 33 0 21-10 22-10" stroke="#ecfdff" stroke-width="8" stroke-linecap="round"/>

    </g>



    <rect x="300" y="618" width="108" height="108" rx="23.76" fill="#05040b" opacity="0.24"/>
    <rect x="300" y="610" width="108" height="108" rx="23.76" fill="#1f1a33" opacity="0.4"/>
    <rect x="304" y="614" width="100" height="100" rx="21.6" fill="#ff6c66" opacity="0.5"/>
    <rect x="310" y="620" width="88" height="88" rx="19.439999999999998" fill="url(#tokenShade)" opacity="0.25"/>
    <g transform="translate(329.16 639.16) scale(0.4968)" opacity="0.46">

    <path d="M50 8c9 12 22 22 22 38 0 13-10 26-22 40-12-14-22-27-22-40 0-16 13-26 22-38z" fill="#fff2d9"/>
    <path d="M50 26c6 8 14 15 14 25 0 8-6 15-14 24-8-9-14-16-14-24 0-10 8-17 14-25z" fill="#ff8462"/>

    </g>



    <rect x="420" y="618" width="108" height="108" rx="23.76" fill="#05040b" opacity="0.24"/>
    <rect x="420" y="610" width="108" height="108" rx="23.76" fill="#1f1a33" opacity="0.4"/>
    <rect x="424" y="614" width="100" height="100" rx="21.6" fill="#f7b64d" opacity="0.5"/>
    <rect x="430" y="620" width="88" height="88" rx="19.439999999999998" fill="url(#tokenShade)" opacity="0.25"/>
    <g transform="translate(449.16 639.16) scale(0.4968)" opacity="0.46">

    <circle cx="50" cy="50" r="18" fill="#fff8df"/>
    <g stroke="#fff8df" stroke-width="8" stroke-linecap="round">
      <path d="M50 6v18"/>
      <path d="M50 76v18"/>
      <path d="M6 50h18"/>
      <path d="M76 50h18"/>
      <path d="M20 20l13 13"/>
      <path d="M67 67l13 13"/>
      <path d="M20 80l13-13"/>
      <path d="M67 33l13-13"/>
    </g>

    </g>



    <rect x="540" y="618" width="108" height="108" rx="23.76" fill="#05040b" opacity="0.24"/>
    <rect x="540" y="610" width="108" height="108" rx="23.76" fill="#1f1a33" opacity="0.4"/>
    <rect x="544" y="614" width="100" height="100" rx="21.6" fill="#58d388" opacity="0.5"/>
    <rect x="550" y="620" width="88" height="88" rx="19.439999999999998" fill="url(#tokenShade)" opacity="0.25"/>
    <g transform="translate(569.16 639.16) scale(0.4968)" opacity="0.46">

    <path d="M18 58c0-22 18-40 40-40 10 0 19 4 26 10-1 30-24 54-54 54-7-7-12-15-12-24z" fill="#effff4"/>
    <path d="M26 72c18-20 29-31 48-48" stroke="#58d388" stroke-width="7" stroke-linecap="round"/>

    </g>



    <rect x="60" y="738" width="108" height="108" rx="23.76" fill="#05040b" opacity="0.24"/>
    <rect x="60" y="730" width="108" height="108" rx="23.76" fill="#1f1a33" opacity="0.4"/>
    <rect x="64" y="734" width="100" height="100" rx="21.6" fill="#58d388" opacity="0.5"/>
    <rect x="70" y="740" width="88" height="88" rx="19.439999999999998" fill="url(#tokenShade)" opacity="0.25"/>
    <g transform="translate(89.16 759.16) scale(0.4968)" opacity="0.46">

    <path d="M18 58c0-22 18-40 40-40 10 0 19 4 26 10-1 30-24 54-54 54-7-7-12-15-12-24z" fill="#effff4"/>
    <path d="M26 72c18-20 29-31 48-48" stroke="#58d388" stroke-width="7" stroke-linecap="round"/>

    </g>



    <rect x="180" y="738" width="108" height="108" rx="23.76" fill="#05040b" opacity="0.24"/>
    <rect x="180" y="730" width="108" height="108" rx="23.76" fill="#1f1a33" opacity="0.4"/>
    <rect x="184" y="734" width="100" height="100" rx="21.6" fill="#ff6c66" opacity="0.5"/>
    <rect x="190" y="740" width="88" height="88" rx="19.439999999999998" fill="url(#tokenShade)" opacity="0.25"/>
    <g transform="translate(209.16 759.16) scale(0.4968)" opacity="0.46">

    <path d="M50 8c9 12 22 22 22 38 0 13-10 26-22 40-12-14-22-27-22-40 0-16 13-26 22-38z" fill="#fff2d9"/>
    <path d="M50 26c6 8 14 15 14 25 0 8-6 15-14 24-8-9-14-16-14-24 0-10 8-17 14-25z" fill="#ff8462"/>

    </g>



    <rect x="300" y="738" width="108" height="108" rx="23.76" fill="#05040b" opacity="0.24"/>
    <rect x="300" y="730" width="108" height="108" rx="23.76" fill="#1f1a33" opacity="0.4"/>
    <rect x="304" y="734" width="100" height="100" rx="21.6" fill="#40384a" opacity="0.5"/>
    <rect x="310" y="740" width="88" height="88" rx="19.439999999999998" fill="url(#tokenShade)" opacity="0.25"/>
    <g transform="translate(329.16 759.16) scale(0.4968)" opacity="0.46">

    <path d="M16 28 38 14l28 10 18 24-12 30-32 8-20-18-4-24z" fill="#6b5a68"/>
    <path d="M28 30 54 42 38 76" stroke="#ff9f66" stroke-width="7" stroke-linecap="round"/>
    <path d="M54 42 74 60" stroke="#ff9f66" stroke-width="6" stroke-linecap="round"/>

    </g>



    <rect x="420" y="738" width="108" height="108" rx="23.76" fill="#05040b" opacity="0.24"/>
    <rect x="420" y="730" width="108" height="108" rx="23.76" fill="#1f1a33" opacity="0.4"/>
    <rect x="424" y="734" width="100" height="100" rx="21.6" fill="#8b8dff" opacity="0.5"/>
    <rect x="430" y="740" width="88" height="88" rx="19.439999999999998" fill="url(#tokenShade)" opacity="0.25"/>
    <g transform="translate(449.16 759.16) scale(0.4968)" opacity="0.46">

    <path d="M67 18c-6 2-18 9-18 28 0 17 12 24 18 26-7 9-17 14-30 14-23 0-41-18-41-40S14 6 37 6c14 0 24 4 30 12z" fill="#f4f2ff"/>
    <circle cx="54" cy="43" r="15" fill="#8b8dff"/>

    </g>



    <rect x="540" y="738" width="108" height="108" rx="23.76" fill="#05040b" opacity="0.24"/>
    <rect x="540" y="730" width="108" height="108" rx="23.76" fill="#1f1a33" opacity="0.4"/>
    <rect x="544" y="734" width="100" height="100" rx="21.6" fill="#f7b64d" opacity="0.5"/>
    <rect x="550" y="740" width="88" height="88" rx="19.439999999999998" fill="url(#tokenShade)" opacity="0.25"/>
    <g transform="translate(569.16 759.16) scale(0.4968)" opacity="0.46">

    <circle cx="50" cy="50" r="18" fill="#fff8df"/>
    <g stroke="#fff8df" stroke-width="8" stroke-linecap="round">
      <path d="M50 6v18"/>
      <path d="M50 76v18"/>
      <path d="M6 50h18"/>
      <path d="M76 50h18"/>
      <path d="M20 20l13 13"/>
      <path d="M67 67l13 13"/>
      <path d="M20 80l13-13"/>
      <path d="M67 33l13-13"/>
    </g>

    </g>



    <rect x="60" y="858" width="108" height="108" rx="23.76" fill="#05040b" opacity="0.24"/>
    <rect x="60" y="850" width="108" height="108" rx="23.76" fill="#1f1a33" opacity="0.4"/>
    <rect x="64" y="854" width="100" height="100" rx="21.6" fill="#3fc7e9" opacity="0.5"/>
    <rect x="70" y="860" width="88" height="88" rx="19.439999999999998" fill="url(#tokenShade)" opacity="0.25"/>
    <g transform="translate(89.16 879.16) scale(0.4968)" opacity="0.46">

    <path d="M6 38c12-10 21-10 33 0s21 10 33 0 21-10 22-10" stroke="#ecfdff" stroke-width="8" stroke-linecap="round"/>
    <path d="M6 62c12-10 21-10 33 0s21 10 33 0 21-10 22-10" stroke="#ecfdff" stroke-width="8" stroke-linecap="round"/>

    </g>



    <rect x="180" y="858" width="108" height="108" rx="23.76" fill="#05040b" opacity="0.24"/>
    <rect x="180" y="850" width="108" height="108" rx="23.76" fill="#1f1a33" opacity="0.4"/>
    <rect x="184" y="854" width="100" height="100" rx="21.6" fill="#f7b64d" opacity="0.5"/>
    <rect x="190" y="860" width="88" height="88" rx="19.439999999999998" fill="url(#tokenShade)" opacity="0.25"/>
    <g transform="translate(209.16 879.16) scale(0.4968)" opacity="0.46">

    <circle cx="50" cy="50" r="18" fill="#fff8df"/>
    <g stroke="#fff8df" stroke-width="8" stroke-linecap="round">
      <path d="M50 6v18"/>
      <path d="M50 76v18"/>
      <path d="M6 50h18"/>
      <path d="M76 50h18"/>
      <path d="M20 20l13 13"/>
      <path d="M67 67l13 13"/>
      <path d="M20 80l13-13"/>
      <path d="M67 33l13-13"/>
    </g>

    </g>



    <rect x="300" y="858" width="108" height="108" rx="23.76" fill="#05040b" opacity="0.24"/>
    <rect x="300" y="850" width="108" height="108" rx="23.76" fill="#1f1a33" opacity="0.4"/>
    <rect x="304" y="854" width="100" height="100" rx="21.6" fill="#58d388" opacity="0.5"/>
    <rect x="310" y="860" width="88" height="88" rx="19.439999999999998" fill="url(#tokenShade)" opacity="0.25"/>
    <g transform="translate(329.16 879.16) scale(0.4968)" opacity="0.46">

    <path d="M18 58c0-22 18-40 40-40 10 0 19 4 26 10-1 30-24 54-54 54-7-7-12-15-12-24z" fill="#effff4"/>
    <path d="M26 72c18-20 29-31 48-48" stroke="#58d388" stroke-width="7" stroke-linecap="round"/>

    </g>



    <rect x="420" y="858" width="108" height="108" rx="23.76" fill="#05040b" opacity="0.24"/>
    <rect x="420" y="850" width="108" height="108" rx="23.76" fill="#1f1a33" opacity="0.4"/>
    <rect x="424" y="854" width="100" height="100" rx="21.6" fill="#ff6c66" opacity="0.5"/>
    <rect x="430" y="860" width="88" height="88" rx="19.439999999999998" fill="url(#tokenShade)" opacity="0.25"/>
    <g transform="translate(449.16 879.16) scale(0.4968)" opacity="0.46">

    <path d="M50 8c9 12 22 22 22 38 0 13-10 26-22 40-12-14-22-27-22-40 0-16 13-26 22-38z" fill="#fff2d9"/>
    <path d="M50 26c6 8 14 15 14 25 0 8-6 15-14 24-8-9-14-16-14-24 0-10 8-17 14-25z" fill="#ff8462"/>

    </g>



    <rect x="540" y="858" width="108" height="108" rx="23.76" fill="#05040b" opacity="0.24"/>
    <rect x="540" y="850" width="108" height="108" rx="23.76" fill="#1f1a33" opacity="0.4"/>
    <rect x="544" y="854" width="100" height="100" rx="21.6" fill="#8b8dff" opacity="0.5"/>
    <rect x="550" y="860" width="88" height="88" rx="19.439999999999998" fill="url(#tokenShade)" opacity="0.25"/>
    <g transform="translate(569.16 879.16) scale(0.4968)" opacity="0.46">

    <path d="M67 18c-6 2-18 9-18 28 0 17 12 24 18 26-7 9-17 14-30 14-23 0-41-18-41-40S14 6 37 6c14 0 24 4 30 12z" fill="#f4f2ff"/>
    <circle cx="54" cy="43" r="15" fill="#8b8dff"/>

    </g>


    <g transform="translate(88 140)">
      <rect width="544" height="1000" rx="40" fill="#0f0b1f" opacity="0.72"/>
      <rect x="22" y="22" width="500" height="956" rx="32" fill="#16102d" opacity="0.92"/>
      <text x="272" y="168" text-anchor="middle" class="panelTitle">Ash Took The Shrine</text>
      <text x="272" y="226" text-anchor="middle" class="panelCopy">One more line could have saved it.</text>
      <text x="272" y="382" text-anchor="middle" class="panelLabel">RUN SCORE</text>
      <text x="272" y="462" text-anchor="middle" class="panelValue">18,420</text>
      <text x="272" y="584" text-anchor="middle" class="panelLabel">BEST</text>
      <text x="272" y="648" text-anchor="middle" class="panelMiniValue">22,180</text>
      <g transform="translate(116 760)">
        <rect width="312" height="92" rx="26" fill="#f0c875"/>
        <rect x="6" y="6" width="300" height="80" rx="22" fill="url(#buttonFill)" opacity="0.95"/>
        <text x="156" y="57" text-anchor="middle" class="buttonLabel">Fold Again</text>
      </g>
    </g>

</svg>
