<?xml version="1.0" encoding="UTF-8"?>
<svg xmlns="http://www.w3.org/2000/svg" width="1024" height="1024" viewBox="0 0 1024 1024" fill="none">
  <defs>
    <linearGradient id="icon-b-bg" x1="0" y1="0" x2="1" y2="1">
      <stop offset="0%" stop-color="#08131d"/>
      <stop offset="58%" stop-color="#102433"/>
      <stop offset="100%" stop-color="#170f1b"/>
    </linearGradient>
    <linearGradient id="icon-b-runway" x1="0" y1="0" x2="0" y2="1">
      <stop offset="0%" stop-color="#aab8bf"/>
      <stop offset="100%" stop-color="#6f818a"/>
    </linearGradient>
    <filter id="icon-b-blur"><feGaussianBlur stdDeviation="28"/></filter>
    <filter id="icon-b-soft"><feGaussianBlur stdDeviation="58"/></filter>
    <filter id="icon-b-title"><feDropShadow dx="0" dy="16" stdDeviation="24" flood-color="#050b13" flood-opacity="0.42"/></filter>
    <filter id="icon-b-shot-shadow"><feDropShadow dx="0" dy="24" stdDeviation="36" flood-color="#050b13" flood-opacity="0.38"/></filter>
    <linearGradient id="icon-b-shade" x1="0" y1="0" x2="0" y2="1">
      <stop offset="0%" stop-color="#06111a" stop-opacity="0.72"/>
      <stop offset="35%" stop-color="#06111a" stop-opacity="0.18"/>
      <stop offset="100%" stop-color="#06111a" stop-opacity="0.58"/>
    </linearGradient>
    <style>
      text { font-family: "Avenir Next", "SF Pro Display", "Trebuchet MS", sans-serif; }
    </style>
  </defs>
  <rect width="1024" height="1024" fill="url(#icon-b-bg)"/>
  <circle cx="184.32" cy="225.28" r="204.8" fill="#123a58" opacity="0.18"/>
  <circle cx="839.68" cy="184.32" r="184.32" fill="#351739" opacity="0.16"/>
  <circle cx="512" cy="620" r="300" stroke="#69e6ff" stroke-width="4" stroke-opacity="0.1" fill="none"/><circle cx="512" cy="620" r="404" stroke="#69e6ff" stroke-width="4" stroke-opacity="0.082" fill="none"/><circle cx="512" cy="620" r="508" stroke="#69e6ff" stroke-width="4" stroke-opacity="0.064" fill="none"/>
<circle cx="512" cy="720" r="260" fill="#0f4a57" opacity="0.28" filter="url(#icon-b-soft)"/>

    <polygon points="246,840 778,840 639.68,164 384.32,164" fill="url(#icon-b-runway)" opacity="0.94"/>
    <line x1="379" y1="840" x2="448.15999999999997" y2="164" stroke="#d7fbff" stroke-opacity="0.18" stroke-width="4"/>
    <line x1="512" y1="840" x2="512" y2="164" stroke="#d7fbff" stroke-opacity="0.18" stroke-width="4"/>
    <line x1="645" y1="840" x2="575.8399999999999" y2="164" stroke="#d7fbff" stroke-opacity="0.18" stroke-width="4"/>
    <line x1="230" y1="691.28" x2="794" y2="691.28" stroke="#69e6ff" stroke-opacity="0.16" stroke-width="6"/>
    <line x1="234" y1="529.04" x2="790" y2="529.04" stroke="#69e6ff" stroke-opacity="0.14" stroke-width="5"/>
    <line x1="238" y1="380.32" x2="786" y2="380.32" stroke="#69e6ff" stroke-opacity="0.12" stroke-width="4"/>
  

    <g filter="url(#icon-b-blur)">
      <rect x="340" y="650" width="148" height="148" rx="33" fill="#63e6ff" opacity="0.28"/>
    </g>
    <rect x="340" y="650" width="148" height="148" rx="33" fill="#63e6ff"/>
    <rect x="357.76" y="667.76" width="112.48" height="41.440000000000005" rx="14.85" fill="#f7fbff" opacity="0.16"/>
  

    <g filter="url(#icon-b-blur)">
      <rect x="554" y="444" width="132" height="132" rx="29" fill="#ff88a5" opacity="0.28"/>
    </g>
    <rect x="554" y="444" width="132" height="132" rx="29" fill="#ff88a5"/>
    <rect x="569.84" y="459.84" width="100.32000000000001" height="36.96" rx="13.05" fill="#f7fbff" opacity="0.16"/>
  

    <g filter="url(#icon-b-blur)">
      <rect x="476" y="268" width="100" height="100" rx="22" fill="#ff88a5" opacity="0.28"/>
    </g>
    <rect x="476" y="268" width="100" height="100" rx="22" fill="#ff88a5"/>
    <rect x="488" y="280" width="76" height="28.000000000000004" rx="9.9" fill="#f7fbff" opacity="0.16"/>
  

    <g filter="url(#icon-b-blur)">
      <rect x="606" y="202" width="70" height="70" rx="15" fill="#ffd780" opacity="0.28"/>
    </g>
    <rect x="606" y="202" width="70" height="70" rx="15" fill="#ffd780"/>
    <rect x="614.4" y="210.4" width="53.2" height="19.6" rx="6.75" fill="#f7fbff" opacity="0.16"/>
  
</svg>