<?xml version="1.0" encoding="UTF-8"?>
<svg xmlns="http://www.w3.org/2000/svg" width="1600" height="900" viewBox="0 0 1600 900" fill="none">
  <defs>
    <linearGradient id="night" x1="0" y1="0" x2="1" y2="1">
      <stop offset="0%" stop-color="#09131d"/>
      <stop offset="52%" stop-color="#0f1f2f"/>
      <stop offset="100%" stop-color="#1a1632"/>
    </linearGradient>
    <linearGradient id="frameFill" x1="0" y1="0" x2="1" y2="1">
      <stop offset="0%" stop-color="#39647a"/>
      <stop offset="100%" stop-color="#153043"/>
    </linearGradient>
    <linearGradient id="glassFill" x1="0" y1="0" x2="0" y2="1">
      <stop offset="0%" stop-color="#14374a"/>
      <stop offset="100%" stop-color="#0e2232"/>
    </linearGradient>
    <linearGradient id="vaseFill" x1="0" y1="-1" x2="0" y2="1">
      <stop offset="0%" stop-color="#224b67"/>
      <stop offset="100%" stop-color="#132a3e"/>
    </linearGradient>
    <linearGradient id="buttonFill" x1="0" y1="0" x2="1" y2="1">
      <stop offset="0%" stop-color="#f9da90"/>
      <stop offset="100%" stop-color="#e9aa37"/>
    </linearGradient>
    <linearGradient id="latchFill" x1="0" y1="0" x2="1" y2="1">
      <stop offset="0%" stop-color="#ffd98a"/>
      <stop offset="100%" stop-color="#c88429"/>
    </linearGradient>
    <filter id="glassGlow" x="-30%" y="-30%" width="160%" height="160%">
      <feGaussianBlur stdDeviation="28"/>
    </filter>
    <style>
      text { font-family: "Avenir Next", "SF Pro Display", "Trebuchet MS", sans-serif; }
      .eyebrow { fill: #9ee3cf; font-size: 22px; letter-spacing: 0.22em; font-weight: 700; }
      .title { fill: #f7fff8; font-size: 64px; font-weight: 700; }
      .subtitle { fill: #c4ddd8; font-size: 27px; font-weight: 500; }
      .desktopTitle { fill: #f7fff8; font-size: 54px; font-weight: 700; }
      .desktopSubtitle { fill: #c4ddd8; font-size: 24px; font-weight: 500; }
      .buttonLabel { fill: #322006; font-size: 26px; font-weight: 700; }
      .hudLabel { fill: #9ee3cf; font-size: 22px; letter-spacing: 0.16em; font-weight: 700; }
      .hudValue { fill: #f8fff8; font-size: 42px; font-weight: 700; }
      .accent { fill: #fff0ae; font-size: 26px; font-weight: 700; letter-spacing: 0.12em; }
      .panelTitle { fill: #f8fff8; font-size: 42px; font-weight: 700; }
      .panelCopy { fill: #c4ddd8; font-size: 24px; font-weight: 500; }
      .panelLabel { fill: #9ee3cf; font-size: 22px; font-weight: 700; letter-spacing: 0.16em; }
      .panelValue { fill: #fff3c2; font-size: 54px; font-weight: 700; }
      .panelMiniValue { fill: #fff3c2; font-size: 44px; font-weight: 700; }
    </style>
  </defs>
  
    
    <rect width="1600" height="900" fill="url(#night)"/>
    <circle cx="192" cy="126.00000000000001" r="256" fill="#1c4654" opacity="0.34"/>
    <circle cx="1344" cy="162" r="224.00000000000003" fill="#43235a" opacity="0.28"/>
    <circle cx="1120" cy="684" r="384" fill="#133645" opacity="0.26"/>
    
        <rect x="100" y="-24" width="56" height="948" fill="#d6fff7" opacity="0.03"/>
        <rect x="122" y="-24" width="12" height="948" fill="#f3fff9" opacity="0.05"/>
      

        <rect x="356" y="-24" width="56" height="948" fill="#d6fff7" opacity="0.03"/>
        <rect x="378" y="-24" width="12" height="948" fill="#f3fff9" opacity="0.05"/>
      

        <rect x="1188" y="-24" width="56" height="948" fill="#d6fff7" opacity="0.03"/>
        <rect x="1210" y="-24" width="12" height="948" fill="#f3fff9" opacity="0.05"/>
      

        <rect x="1444" y="-24" width="56" height="948" fill="#d6fff7" opacity="0.03"/>
        <rect x="1466" y="-24" width="12" height="948" fill="#f3fff9" opacity="0.05"/>
      
    <circle cx="256" cy="108" r="2.2" fill="#fff3c9" opacity="0.68"/><circle cx="256" cy="108" r="9" fill="#fff3c9" opacity="0.05"/>
<circle cx="416" cy="288" r="2.2" fill="#fff3c9" opacity="0.68"/><circle cx="416" cy="288" r="9" fill="#fff3c9" opacity="0.05"/>
<circle cx="1376" cy="252.00000000000003" r="2.2" fill="#fff3c9" opacity="0.68"/><circle cx="1376" cy="252.00000000000003" r="9" fill="#fff3c9" opacity="0.05"/>
<circle cx="1152" cy="144" r="2.2" fill="#fff3c9" opacity="0.68"/><circle cx="1152" cy="144" r="9" fill="#fff3c9" opacity="0.05"/>
<circle cx="384" cy="648" r="2.2" fill="#fff3c9" opacity="0.68"/><circle cx="384" cy="648" r="9" fill="#fff3c9" opacity="0.05"/>
<circle cx="1088" cy="558" r="2.2" fill="#fff3c9" opacity="0.68"/><circle cx="1088" cy="558" r="9" fill="#fff3c9" opacity="0.05"/>
<circle cx="1312" cy="756" r="2.2" fill="#fff3c9" opacity="0.68"/><circle cx="1312" cy="756" r="9" fill="#fff3c9" opacity="0.05"/>
<circle cx="224.00000000000003" cy="792" r="2.2" fill="#fff3c9" opacity="0.68"/><circle cx="224.00000000000003" cy="792" r="9" fill="#fff3c9" opacity="0.05"/>
  
    
    <g filter="url(#glassGlow)">
      <rect x="430" y="36" width="740" height="828" rx="46" fill="#163549" opacity="0.38"/>
    </g>
    <rect x="440" y="46" width="720" height="808" rx="42" fill="url(#frameFill)"/>
    <rect x="448" y="54" width="704" height="792" rx="36" fill="url(#glassFill)"/>
    
        <path d="M 536 128 C 528 272, 546 448, 536 684" stroke="#d5fff1" stroke-width="68" stroke-linecap="round" opacity="0.13"/>
        <path d="M 536 128 C 528 272, 546 448, 536 684" stroke="#6de1cf" stroke-width="4" stroke-linecap="round" opacity="0.24"/>
      

        <path d="M 712 128 C 704 272, 722 448, 712 684" stroke="#d5fff1" stroke-width="68" stroke-linecap="round" opacity="0.13"/>
        <path d="M 712 128 C 704 272, 722 448, 712 684" stroke="#6de1cf" stroke-width="4" stroke-linecap="round" opacity="0.24"/>
      

        <path d="M 888 128 C 880 272, 898 448, 888 684" stroke="#d5fff1" stroke-width="68" stroke-linecap="round" opacity="0.13"/>
        <path d="M 888 128 C 880 272, 898 448, 888 684" stroke="#6de1cf" stroke-width="4" stroke-linecap="round" opacity="0.24"/>
      

        <path d="M 1064 128 C 1056 272, 1074 448, 1064 684" stroke="#d5fff1" stroke-width="68" stroke-linecap="round" opacity="0.13"/>
        <path d="M 1064 128 C 1056 272, 1074 448, 1064 684" stroke="#6de1cf" stroke-width="4" stroke-linecap="round" opacity="0.24"/>
      
    
    <path d="M 536 170 C 536 249.2, 712 174.8, 712 254" stroke="#eefdf7" stroke-width="14" stroke-linecap="round" fill="none" opacity="0.22"/>
    <path d="M 536 170 C 536 249.2, 712 174.8, 712 254" stroke="#6de1cf" stroke-width="6" stroke-linecap="round" fill="none" opacity="0.38"/>
  

    <path d="M 712 170 C 712 249.2, 536 174.8, 536 254" stroke="#eefdf7" stroke-width="14" stroke-linecap="round" fill="none" opacity="0.22"/>
    <path d="M 712 170 C 712 249.2, 536 174.8, 536 254" stroke="#6de1cf" stroke-width="6" stroke-linecap="round" fill="none" opacity="0.38"/>
  

    <path d="M 888 170 C 888 170, 888 254, 888 254" stroke="#eefdf7" stroke-width="14" stroke-linecap="round" fill="none" opacity="0.22"/>
    <path d="M 888 170 C 888 170, 888 254, 888 254" stroke="#6de1cf" stroke-width="6" stroke-linecap="round" fill="none" opacity="0.38"/>
  

    <path d="M 1064 170 C 1064 170, 1064 254, 1064 254" stroke="#eefdf7" stroke-width="14" stroke-linecap="round" fill="none" opacity="0.22"/>
    <path d="M 1064 170 C 1064 170, 1064 254, 1064 254" stroke="#6de1cf" stroke-width="6" stroke-linecap="round" fill="none" opacity="0.38"/>
  

    <path d="M 712 254 C 712 333.2, 888 258.8, 888 338" stroke="#eefdf7" stroke-width="14" stroke-linecap="round" fill="none" opacity="0.22"/>
    <path d="M 712 254 C 712 333.2, 888 258.8, 888 338" stroke="#6de1cf" stroke-width="6" stroke-linecap="round" fill="none" opacity="0.38"/>
  

    <path d="M 888 254 C 888 333.2, 712 258.8, 712 338" stroke="#eefdf7" stroke-width="14" stroke-linecap="round" fill="none" opacity="0.22"/>
    <path d="M 888 254 C 888 333.2, 712 258.8, 712 338" stroke="#6de1cf" stroke-width="6" stroke-linecap="round" fill="none" opacity="0.38"/>
  

    <path d="M 536 254 C 536 254, 536 338, 536 338" stroke="#eefdf7" stroke-width="14" stroke-linecap="round" fill="none" opacity="0.22"/>
    <path d="M 536 254 C 536 254, 536 338, 536 338" stroke="#6de1cf" stroke-width="6" stroke-linecap="round" fill="none" opacity="0.38"/>
  

    <path d="M 1064 254 C 1064 254, 1064 338, 1064 338" stroke="#eefdf7" stroke-width="14" stroke-linecap="round" fill="none" opacity="0.22"/>
    <path d="M 1064 254 C 1064 254, 1064 338, 1064 338" stroke="#6de1cf" stroke-width="6" stroke-linecap="round" fill="none" opacity="0.38"/>
  

    <path d="M 536 338 C 536 338, 536 422, 536 422" stroke="#eefdf7" stroke-width="14" stroke-linecap="round" fill="none" opacity="0.22"/>
    <path d="M 536 338 C 536 338, 536 422, 536 422" stroke="#6de1cf" stroke-width="6" stroke-linecap="round" fill="none" opacity="0.38"/>
  

    <path d="M 712 338 C 712 338, 712 422, 712 422" stroke="#eefdf7" stroke-width="14" stroke-linecap="round" fill="none" opacity="0.22"/>
    <path d="M 712 338 C 712 338, 712 422, 712 422" stroke="#6de1cf" stroke-width="6" stroke-linecap="round" fill="none" opacity="0.38"/>
  

    <path d="M 888 338 C 888 417.2, 1064 342.8, 1064 422" stroke="#eefdf7" stroke-width="14" stroke-linecap="round" fill="none" opacity="0.22"/>
    <path d="M 888 338 C 888 417.2, 1064 342.8, 1064 422" stroke="#6de1cf" stroke-width="6" stroke-linecap="round" fill="none" opacity="0.38"/>
  

    <path d="M 1064 338 C 1064 417.2, 888 342.8, 888 422" stroke="#eefdf7" stroke-width="14" stroke-linecap="round" fill="none" opacity="0.22"/>
    <path d="M 1064 338 C 1064 417.2, 888 342.8, 888 422" stroke="#6de1cf" stroke-width="6" stroke-linecap="round" fill="none" opacity="0.38"/>
  

    <path d="M 712 422 C 712 422, 712 506, 712 506" stroke="#eefdf7" stroke-width="14" stroke-linecap="round" fill="none" opacity="0.22"/>
    <path d="M 712 422 C 712 422, 712 506, 712 506" stroke="#6de1cf" stroke-width="6" stroke-linecap="round" fill="none" opacity="0.38"/>
  

    <path d="M 888 422 C 888 422, 888 506, 888 506" stroke="#eefdf7" stroke-width="14" stroke-linecap="round" fill="none" opacity="0.22"/>
    <path d="M 888 422 C 888 422, 888 506, 888 506" stroke="#6de1cf" stroke-width="6" stroke-linecap="round" fill="none" opacity="0.38"/>
  

    <path d="M 536 422 C 536 422, 536 506, 536 506" stroke="#eefdf7" stroke-width="14" stroke-linecap="round" fill="none" opacity="0.22"/>
    <path d="M 536 422 C 536 422, 536 506, 536 506" stroke="#6de1cf" stroke-width="6" stroke-linecap="round" fill="none" opacity="0.38"/>
  

    <path d="M 1064 422 C 1064 422, 1064 506, 1064 506" stroke="#eefdf7" stroke-width="14" stroke-linecap="round" fill="none" opacity="0.22"/>
    <path d="M 1064 422 C 1064 422, 1064 506, 1064 506" stroke="#6de1cf" stroke-width="6" stroke-linecap="round" fill="none" opacity="0.38"/>
  

    <path d="M 536 506 C 536 585.2, 712 510.8, 712 590" stroke="#eefdf7" stroke-width="14" stroke-linecap="round" fill="none" opacity="0.22"/>
    <path d="M 536 506 C 536 585.2, 712 510.8, 712 590" stroke="#6de1cf" stroke-width="6" stroke-linecap="round" fill="none" opacity="0.38"/>
  

    <path d="M 712 506 C 712 585.2, 536 510.8, 536 590" stroke="#eefdf7" stroke-width="14" stroke-linecap="round" fill="none" opacity="0.22"/>
    <path d="M 712 506 C 712 585.2, 536 510.8, 536 590" stroke="#6de1cf" stroke-width="6" stroke-linecap="round" fill="none" opacity="0.38"/>
  

    <path d="M 888 506 C 888 506, 888 590, 888 590" stroke="#eefdf7" stroke-width="14" stroke-linecap="round" fill="none" opacity="0.22"/>
    <path d="M 888 506 C 888 506, 888 590, 888 590" stroke="#6de1cf" stroke-width="6" stroke-linecap="round" fill="none" opacity="0.38"/>
  

    <path d="M 1064 506 C 1064 506, 1064 590, 1064 590" stroke="#eefdf7" stroke-width="14" stroke-linecap="round" fill="none" opacity="0.22"/>
    <path d="M 1064 506 C 1064 506, 1064 590, 1064 590" stroke="#6de1cf" stroke-width="6" stroke-linecap="round" fill="none" opacity="0.38"/>
  

    <path d="M 536 590 C 536 590, 536 680, 536 680" stroke="#eefdf7" stroke-width="12" stroke-linecap="round" fill="none" opacity="0.18"/>
    <path d="M 536 590 C 536 590, 536 680, 536 680" stroke="#6de1cf" stroke-width="4" stroke-linecap="round" fill="none" opacity="0.38"/>
  

    <path d="M 712 590 C 712 590, 712 680, 712 680" stroke="#eefdf7" stroke-width="12" stroke-linecap="round" fill="none" opacity="0.18"/>
    <path d="M 712 590 C 712 590, 712 680, 712 680" stroke="#6de1cf" stroke-width="4" stroke-linecap="round" fill="none" opacity="0.38"/>
  

    <path d="M 888 590 C 888 590, 888 680, 888 680" stroke="#eefdf7" stroke-width="12" stroke-linecap="round" fill="none" opacity="0.18"/>
    <path d="M 888 590 C 888 590, 888 680, 888 680" stroke="#6de1cf" stroke-width="4" stroke-linecap="round" fill="none" opacity="0.38"/>
  

    <path d="M 1064 590 C 1064 590, 1064 680, 1064 680" stroke="#eefdf7" stroke-width="12" stroke-linecap="round" fill="none" opacity="0.18"/>
    <path d="M 1064 590 C 1064 590, 1064 680, 1064 680" stroke="#6de1cf" stroke-width="4" stroke-linecap="round" fill="none" opacity="0.38"/>
  
    
        <g transform="translate(624 212)">
          <circle r="28" fill="#402614" opacity="0.72"/>
          <circle r="23" fill="#9d6a34" opacity="0.98"/>
          <circle r="18" fill="url(#latchFill)" opacity="1"/>
          <rect x="-14" y="-4" width="28" height="8" rx="4" transform="rotate(35)" fill="#fff4d4" opacity="0.92"/>
          <rect x="-14" y="-4" width="28" height="8" rx="4" transform="rotate(-35)" fill="#f3cb6f" opacity="0.92"/>
          <circle r="4.5" fill="#fff8df" opacity="0.9"/>
        </g>
      

        <g transform="translate(976 212)">
          <circle r="28" fill="#402614" opacity="0.72"/>
          <circle r="23" fill="#9d6a34" opacity="0.98"/>
          <circle r="18" fill="url(#latchFill)" opacity="1"/>
          <rect x="-14" y="-4" width="28" height="8" rx="4" transform="rotate(0)" fill="#fff4d4" opacity="0.92"/>
          <rect x="-14" y="-4" width="28" height="8" rx="4" transform="rotate(90)" fill="#f3cb6f" opacity="0.92"/>
          <circle r="4.5" fill="#fff8df" opacity="0.9"/>
        </g>
      

        <g transform="translate(800 296)">
          <circle r="28" fill="#402614" opacity="0.72"/>
          <circle r="23" fill="#9d6a34" opacity="0.98"/>
          <circle r="18" fill="url(#latchFill)" opacity="1"/>
          <rect x="-14" y="-4" width="28" height="8" rx="4" transform="rotate(35)" fill="#fff4d4" opacity="0.92"/>
          <rect x="-14" y="-4" width="28" height="8" rx="4" transform="rotate(-35)" fill="#f3cb6f" opacity="0.92"/>
          <circle r="4.5" fill="#fff8df" opacity="0.9"/>
        </g>
      

        <g transform="translate(624 380)">
          <circle r="28" fill="#402614" opacity="0.72"/>
          <circle r="23" fill="#9d6a34" opacity="0.98"/>
          <circle r="18" fill="url(#latchFill)" opacity="1"/>
          <rect x="-14" y="-4" width="28" height="8" rx="4" transform="rotate(0)" fill="#fff4d4" opacity="0.92"/>
          <rect x="-14" y="-4" width="28" height="8" rx="4" transform="rotate(90)" fill="#f3cb6f" opacity="0.92"/>
          <circle r="4.5" fill="#fff8df" opacity="0.9"/>
        </g>
      

        <g transform="translate(976 380)">
          <circle r="28" fill="#402614" opacity="0.72"/>
          <circle r="23" fill="#9d6a34" opacity="0.98"/>
          <circle r="18" fill="url(#latchFill)" opacity="1"/>
          <rect x="-14" y="-4" width="28" height="8" rx="4" transform="rotate(35)" fill="#fff4d4" opacity="0.92"/>
          <rect x="-14" y="-4" width="28" height="8" rx="4" transform="rotate(-35)" fill="#f3cb6f" opacity="0.92"/>
          <circle r="4.5" fill="#fff8df" opacity="0.9"/>
        </g>
      

        <g transform="translate(800 464)">
          <circle r="28" fill="#402614" opacity="0.72"/>
          <circle r="23" fill="#9d6a34" opacity="0.98"/>
          <circle r="18" fill="url(#latchFill)" opacity="1"/>
          <rect x="-14" y="-4" width="28" height="8" rx="4" transform="rotate(0)" fill="#fff4d4" opacity="0.92"/>
          <rect x="-14" y="-4" width="28" height="8" rx="4" transform="rotate(90)" fill="#f3cb6f" opacity="0.92"/>
          <circle r="4.5" fill="#fff8df" opacity="0.9"/>
        </g>
      

        <g transform="translate(624 548)">
          <circle r="28" fill="#402614" opacity="0.72"/>
          <circle r="23" fill="#9d6a34" opacity="0.98"/>
          <circle r="18" fill="url(#latchFill)" opacity="1"/>
          <rect x="-14" y="-4" width="28" height="8" rx="4" transform="rotate(35)" fill="#fff4d4" opacity="0.92"/>
          <rect x="-14" y="-4" width="28" height="8" rx="4" transform="rotate(-35)" fill="#f3cb6f" opacity="0.92"/>
          <circle r="4.5" fill="#fff8df" opacity="0.9"/>
        </g>
      

        <g transform="translate(976 548)">
          <circle r="28" fill="#402614" opacity="0.72"/>
          <circle r="23" fill="#9d6a34" opacity="0.98"/>
          <circle r="18" fill="url(#latchFill)" opacity="1"/>
          <rect x="-14" y="-4" width="28" height="8" rx="4" transform="rotate(0)" fill="#fff4d4" opacity="0.92"/>
          <rect x="-14" y="-4" width="28" height="8" rx="4" transform="rotate(90)" fill="#f3cb6f" opacity="0.92"/>
          <circle r="4.5" fill="#fff8df" opacity="0.9"/>
        </g>
      
    
        <g transform="translate(536 752)">
          <ellipse cy="12" rx="48" ry="18" fill="#0a1621" opacity="0.42"/>
          <path d="M -42 -10 C -36 42, -26 82, 0 92 C 26 82, 36 42, 42 -10 Z" fill="#17354a" opacity="0.96"/>
          <path d="M -34 -6 C -28 34, -18 62, 0 70 C 18 62, 28 34, 34 -6 Z" fill="url(#vaseFill)" opacity="0.88"/>
          <circle cy="-28" r="22" fill="#ff6f98" opacity="0.96"/>
          <g transform="translate(-16 -44) scale(0.32)" opacity="1">
            
    <circle cx="50" cy="50" r="14" fill="#fff7fb"/>
    <circle cx="30" cy="50" r="16" fill="#ffe6ef"/>
    <circle cx="70" cy="50" r="16" fill="#ffe6ef"/>
    <circle cx="50" cy="30" r="16" fill="#ffe6ef"/>
    <circle cx="50" cy="70" r="16" fill="#ffe6ef"/>
  
          </g>
          <circle cx="512" cy="778" r="7.5" fill="#ff6f98" opacity="0.96"/><circle cx="536" cy="778" r="7.5" fill="#ff6f98" opacity="0.96"/><circle cx="560" cy="778" r="7.5" fill="#214257" opacity="0.72"/>
          
        </g>
      

        <g transform="translate(712 752)">
          <ellipse cy="12" rx="48" ry="18" fill="#0a1621" opacity="0.42"/>
          <path d="M -42 -10 C -36 42, -26 82, 0 92 C 26 82, 36 42, 42 -10 Z" fill="#17354a" opacity="0.96"/>
          <path d="M -34 -6 C -28 34, -18 62, 0 70 C 18 62, 28 34, 34 -6 Z" fill="url(#vaseFill)" opacity="0.88"/>
          <circle cy="-28" r="22" fill="#8a7bff" opacity="0.96"/>
          <g transform="translate(-16 -44) scale(0.32)" opacity="1">
            
    <path d="M50 10 L62 36 L90 50 L62 64 L50 90 L38 64 L10 50 L38 36 Z" fill="#f4f0ff"/>
    <circle cx="50" cy="50" r="10" fill="#e5deff"/>
  
          </g>
          <circle cx="688" cy="778" r="7.5" fill="#8a7bff" opacity="0.96"/><circle cx="712" cy="778" r="7.5" fill="#214257" opacity="0.72"/><circle cx="736" cy="778" r="7.5" fill="#214257" opacity="0.72"/>
          <path d="M 688 700 l 8 -18 l 8 18" fill="none" stroke="#2a1718" stroke-width="5" stroke-linecap="round" stroke-linejoin="round"/>
        </g>
      

        <g transform="translate(888 752)">
          <ellipse cy="12" rx="48" ry="18" fill="#0a1621" opacity="0.42"/>
          <path d="M -42 -10 C -36 42, -26 82, 0 92 C 26 82, 36 42, 42 -10 Z" fill="#17354a" opacity="0.96"/>
          <path d="M -34 -6 C -28 34, -18 62, 0 70 C 18 62, 28 34, 34 -6 Z" fill="url(#vaseFill)" opacity="0.88"/>
          <circle cy="-28" r="22" fill="#ffd765" opacity="0.96"/>
          <g transform="translate(-16 -44) scale(0.32)" opacity="1">
            
    <circle cx="50" cy="50" r="16" fill="#fff8d2"/>
    <path d="M50 8 L58 28 L82 18 L72 40 L92 50 L72 60 L82 82 L58 72 L50 92 L42 72 L18 82 L28 60 L8 50 L28 40 L18 18 L42 28 Z" fill="#fff2a7"/>
  
          </g>
          <circle cx="864" cy="778" r="7.5" fill="#214257" opacity="0.72"/><circle cx="888" cy="778" r="7.5" fill="#214257" opacity="0.72"/><circle cx="912" cy="778" r="7.5" fill="#214257" opacity="0.72"/>
          
        </g>
      

        <g transform="translate(1064 752)">
          <ellipse cy="12" rx="48" ry="18" fill="#0a1621" opacity="0.42"/>
          <path d="M -42 -10 C -36 42, -26 82, 0 92 C 26 82, 36 42, 42 -10 Z" fill="#17354a" opacity="0.96"/>
          <path d="M -34 -6 C -28 34, -18 62, 0 70 C 18 62, 28 34, 34 -6 Z" fill="url(#vaseFill)" opacity="0.88"/>
          <circle cy="-28" r="22" fill="#56d8ac" opacity="0.96"/>
          <g transform="translate(-16 -44) scale(0.32)" opacity="1">
            
    <path d="M50 10 C62 24 62 38 50 50 C38 38 38 24 50 10 Z" fill="#f1fff9"/>
    <path d="M90 50 C76 62 62 62 50 50 C62 38 76 38 90 50 Z" fill="#e2fff4"/>
    <path d="M50 90 C38 76 38 62 50 50 C62 62 62 76 50 90 Z" fill="#f1fff9"/>
    <path d="M10 50 C24 38 38 38 50 50 C38 62 24 62 10 50 Z" fill="#e2fff4"/>
    <circle cx="50" cy="50" r="10" fill="#d5fff0"/>
  
          </g>
          <circle cx="1040" cy="778" r="7.5" fill="#56d8ac" opacity="0.96"/><circle cx="1064" cy="778" r="7.5" fill="#56d8ac" opacity="0.96"/><circle cx="1088" cy="778" r="7.5" fill="#214257" opacity="0.72"/>
          
        </g>
      
    
        <g transform="translate(888 226.28) scale(1.0024)">
          <circle r="28" fill="#ffd2df" opacity="0.28"/>
          <circle r="21" fill="#ff6f98" opacity="0.98"/>
          <g transform="translate(-16 -16) scale(0.32)" opacity="1">
            
    <circle cx="50" cy="50" r="14" fill="#fff7fb"/>
    <circle cx="30" cy="50" r="16" fill="#ffe6ef"/>
    <circle cx="70" cy="50" r="16" fill="#ffe6ef"/>
    <circle cx="50" cy="30" r="16" fill="#ffe6ef"/>
    <circle cx="50" cy="70" r="16" fill="#ffe6ef"/>
  
          </g>
        </g>
      

        <g transform="translate(877.44 332.96) scale(1.0151999999999999)">
          <circle r="28" fill="#cbffe7" opacity="0.28"/>
          <circle r="21" fill="#56d8ac" opacity="0.98"/>
          <g transform="translate(-16 -16) scale(0.32)" opacity="1">
            
    <path d="M50 10 C62 24 62 38 50 50 C38 38 38 24 50 10 Z" fill="#f1fff9"/>
    <path d="M90 50 C76 62 62 62 50 50 C62 38 76 38 90 50 Z" fill="#e2fff4"/>
    <path d="M50 90 C38 76 38 62 50 50 C62 62 62 76 50 90 Z" fill="#f1fff9"/>
    <path d="M10 50 C24 38 38 38 50 50 C38 62 24 62 10 50 Z" fill="#e2fff4"/>
    <circle cx="50" cy="50" r="10" fill="#d5fff0"/>
  
          </g>
        </g>
      

        <g transform="translate(919.6800000000001 406.88) scale(1.0055999999999998)">
          <circle r="28" fill="#fff0b7" opacity="0.28"/>
          <circle r="21" fill="#ffd765" opacity="0.98"/>
          <g transform="translate(-16 -16) scale(0.32)" opacity="1">
            
    <circle cx="50" cy="50" r="16" fill="#fff8d2"/>
    <path d="M50 8 L58 28 L82 18 L72 40 L92 50 L72 60 L82 82 L58 72 L50 92 L42 72 L18 82 L28 60 L8 50 L28 40 L18 18 L42 28 Z" fill="#fff2a7"/>
  
          </g>
        </g>
      

        <g transform="translate(585.2800000000001 529.52) scale(0.9623999999999999)">
          <circle r="28" fill="#ddd9ff" opacity="0.28"/>
          <circle r="21" fill="#8a7bff" opacity="0.98"/>
          <g transform="translate(-16 -16) scale(0.32)" opacity="1">
            
    <path d="M50 10 L62 36 L90 50 L62 64 L50 90 L38 64 L10 50 L38 36 Z" fill="#f4f0ff"/>
    <circle cx="50" cy="50" r="10" fill="#e5deff"/>
  
          </g>
        </g>
      
    
    <rect x="464" y="70" width="672" height="760" rx="28" fill="none" stroke="#edfff7" stroke-width="2" opacity="0.18"/>
    <path d="M 488 130 C 648 94, 828 154, 1112 106" stroke="#f7fff9" stroke-width="18" stroke-linecap="round" opacity="0.08"/>
  
  
    
    <text x="64" y="108" class="hudLabel">SCORE</text>
    <text x="64" y="154" class="hudValue">12,480</text>
    <text x="1536" y="108" text-anchor="end" class="hudLabel">NEXT</text>
    
        <circle cx="1488" cy="126" r="19" fill="#ff6f98" opacity="0.96"/>
        <g transform="translate(1476 114) scale(0.24)" opacity="1">
          
    <circle cx="50" cy="50" r="14" fill="#fff7fb"/>
    <circle cx="30" cy="50" r="16" fill="#ffe6ef"/>
    <circle cx="70" cy="50" r="16" fill="#ffe6ef"/>
    <circle cx="50" cy="30" r="16" fill="#ffe6ef"/>
    <circle cx="50" cy="70" r="16" fill="#ffe6ef"/>
  
        </g>
      
        <circle cx="1436" cy="126" r="19" fill="#56d8ac" opacity="0.96"/>
        <g transform="translate(1424 114) scale(0.24)" opacity="1">
          
    <path d="M50 10 C62 24 62 38 50 50 C38 38 38 24 50 10 Z" fill="#f1fff9"/>
    <path d="M90 50 C76 62 62 62 50 50 C62 38 76 38 90 50 Z" fill="#e2fff4"/>
    <path d="M50 90 C38 76 38 62 50 50 C62 62 62 76 50 90 Z" fill="#f1fff9"/>
    <path d="M10 50 C24 38 38 38 50 50 C38 62 24 62 10 50 Z" fill="#e2fff4"/>
    <circle cx="50" cy="50" r="10" fill="#d5fff0"/>
  
        </g>
      
    <text x="800" y="114" text-anchor="middle" class="accent">STREAK x4</text>
  
  
</svg>