<?xml version="1.0" encoding="UTF-8"?>
<svg xmlns="http://www.w3.org/2000/svg" width="1600" height="900" viewBox="0 0 1600 900" fill="none">
  <defs>
    <linearGradient id="bgFill" x1="0" y1="0" x2="1" y2="1">
      <stop offset="0%" stop-color="#070c14"/>
      <stop offset="58%" stop-color="#0d1622"/>
      <stop offset="100%" stop-color="#1b1221"/>
    </linearGradient>
    <linearGradient id="laneFill" x1="0" y1="0" x2="0" y2="1">
      <stop offset="0%" stop-color="#c5d8dd"/>
      <stop offset="100%" stop-color="#576872"/>
    </linearGradient>
    <linearGradient id="buttonFill" x1="0" y1="0" x2="1" y2="1">
      <stop offset="0%" stop-color="#fff2ba"/>
      <stop offset="100%" stop-color="#ffc56a"/>
    </linearGradient>
    <filter id="runwayGlow" x="-20%" y="-20%" width="140%" height="140%">
      <feGaussianBlur stdDeviation="20"/>
    </filter>
    <filter id="tapGlowBlue" x="-80%" y="-80%" width="260%" height="260%">
      <feGaussianBlur stdDeviation="6"/>
    </filter>
    <filter id="tapGlowPink" x="-80%" y="-80%" width="260%" height="260%">
      <feGaussianBlur stdDeviation="6"/>
    </filter>
    <filter id="tapGlowGold" x="-80%" y="-80%" width="260%" height="260%">
      <feGaussianBlur stdDeviation="6"/>
    </filter>
    <style>
      text { font-family: "Avenir Next", "SF Pro Display", "Trebuchet MS", sans-serif; }
      .title { fill: #f7fbff; font-size: 58px; font-weight: 700; letter-spacing: 0.05em; }
      .hudTag { fill: #9eb7c7; font-size: 20px; font-weight: 600; letter-spacing: 0.08em; text-transform: uppercase; }
      .hudValue { fill: #f7fbff; font-size: 40px; font-weight: 700; }
      .button { fill: #16110a; font-size: 24px; font-weight: 700; letter-spacing: 0.06em; }
      .panelValue { fill: #f7fbff; font-size: 72px; font-weight: 700; }
      .panelLabel { fill: #aabfd0; font-size: 24px; font-weight: 600; letter-spacing: 0.08em; }
    </style>
  </defs>
  
    
    <rect width="1600" height="900" fill="url(#bgFill)"/>
    <circle cx="256" cy="162" r="288" fill="#1f314a" opacity="0.4"/>
    <circle cx="1344" cy="198" r="320" fill="#341d40" opacity="0.34"/>
    <circle cx="800" cy="738" r="704" fill="#0c4d5b" opacity="0.18"/>
    <circle cx="224.00000000000003" cy="108" r="1.8" fill="#fff2c8" opacity="0.72"/><circle cx="224.00000000000003" cy="108" r="6" fill="#fff2c8" opacity="0.08"/><circle cx="416" cy="306" r="1.8" fill="#fff2c8" opacity="0.72"/><circle cx="416" cy="306" r="6" fill="#fff2c8" opacity="0.08"/><circle cx="1184" cy="126.00000000000001" r="1.8" fill="#fff2c8" opacity="0.72"/><circle cx="1184" cy="126.00000000000001" r="6" fill="#fff2c8" opacity="0.08"/><circle cx="1408" cy="252.00000000000003" r="1.8" fill="#fff2c8" opacity="0.72"/><circle cx="1408" cy="252.00000000000003" r="6" fill="#fff2c8" opacity="0.08"/><circle cx="1120" cy="558" r="1.8" fill="#fff2c8" opacity="0.72"/><circle cx="1120" cy="558" r="6" fill="#fff2c8" opacity="0.08"/><circle cx="352" cy="666" r="1.8" fill="#fff2c8" opacity="0.72"/><circle cx="352" cy="666" r="6" fill="#fff2c8" opacity="0.08"/><circle cx="864" cy="792" r="1.8" fill="#fff2c8" opacity="0.72"/><circle cx="864" cy="792" r="6" fill="#fff2c8" opacity="0.08"/>
  
    
    <g>
      
    <g filter="url(#runwayGlow)">
      <polygon points="410,818 620,818 753,162 682,162 980,818 1190,818 918,162 847,162" fill="#78e7ff" opacity="0.14"/>
    </g>
  
      
        <polygon points="420,818 610,818 745,162 690,162" fill="url(#laneFill)" opacity="0.94"/>
      
        <polygon points="610,818 800,818 800,162 745,162" fill="url(#laneFill)" opacity="0.82"/>
      
        <polygon points="800,818 990,818 855,162 800,162" fill="url(#laneFill)" opacity="0.94"/>
      
        <polygon points="990,818 1180,818 910,162 855,162" fill="url(#laneFill)" opacity="0.82"/>
      
      
    <line x1="420" y1="818" x2="690" y2="162" stroke="#d7fbff" stroke-opacity="0.18" stroke-width="3"/>
  
    <line x1="610" y1="818" x2="745" y2="162" stroke="#d7fbff" stroke-opacity="0.18" stroke-width="3"/>
  
    <line x1="800" y1="818" x2="800" y2="162" stroke="#d7fbff" stroke-opacity="0.18" stroke-width="3"/>
  
    <line x1="990" y1="818" x2="855" y2="162" stroke="#d7fbff" stroke-opacity="0.18" stroke-width="3"/>
  
    <line x1="1180" y1="818" x2="910" y2="162" stroke="#d7fbff" stroke-opacity="0.18" stroke-width="3"/>
  
      
    <line x1="468" y1="605.2" x2="1132" y2="605.2" stroke="#69e6ff" stroke-opacity="0.15" stroke-width="5"/>
  
    <line x1="535.5" y1="466.7" x2="1064.5" y2="466.7" stroke="#69e6ff" stroke-opacity="0.15" stroke-width="5"/>
  
    <line x1="603" y1="328.20000000000005" x2="997" y2="328.20000000000005" stroke="#69e6ff" stroke-opacity="0.15" stroke-width="5"/>
  
    <line x1="657" y1="217.39999999999998" x2="943" y2="217.39999999999998" stroke="#69e6ff" stroke-opacity="0.15" stroke-width="5"/>
  
      
    <g filter="url(#tapGlowPink)">
      <polygon points="510.6464,556.2479999999999 616.5536000000001,556.2479999999999 629.792,609.832 497.408,609.832" fill="#ff7e9f" fill-opacity="0.96"/>
      <polygon points="521.23712,564.8214399999999 605.96288,564.8214399999999 619.20128,599.1152 507.99872,599.1152" fill="#f7fbff" fill-opacity="0.18"/>
    </g>
  
    <polygon points="677.364,483.32000000000005 789.336,483.32000000000005 775.1113200000001,378.06 717.2386799999999,378.06" fill="#ffd97f" fill-opacity="0.22"/>
    
    <g filter="url(#tapGlowGold)">
      <polygon points="688.5612,460.65900000000005 778.1388000000001,460.65900000000005 789.336,505.98100000000005 677.364,505.98100000000005" fill="#ffd97f" fill-opacity="0.96"/>
      <polygon points="697.51896,467.91052 769.18104,467.91052 780.37824,496.9166000000001 686.32176,496.9166000000001" fill="#f7fbff" fill-opacity="0.18"/>
    </g>
  
  
    <g filter="url(#tapGlowBlue)">
      <polygon points="815.2192,301.344 877.5808,301.344 885.376,332.896 807.424,332.896" fill="#5be7ff" fill-opacity="0.96"/>
      <polygon points="821.45536,306.39232 871.3446399999999,306.39232 879.1398399999999,326.5856 813.66016,326.5856" fill="#f7fbff" fill-opacity="0.18"/>
    </g>
  
    <g filter="url(#tapGlowBlue)">
      <polygon points="908.0192,301.344 970.3807999999999,301.344 978.1759999999999,332.896 900.2239999999999,332.896" fill="#5be7ff" fill-opacity="0.96"/>
      <polygon points="914.25536,306.39232 964.1446399999999,306.39232 971.9398399999999,326.5856 906.46016,326.5856" fill="#f7fbff" fill-opacity="0.18"/>
    </g>
  
    <rect x="882.376" y="311.44064000000003" width="20.847999999999956" height="11.358719999999995" rx="5.679359999999997" fill="#5be7ff" fill-opacity="0.38"/>
  
      
    <g>
      <line x1="436.4" y1="716" x2="1163.6" y2="716" stroke="#fff0b5" stroke-width="6" stroke-opacity="0.95"/>
      <line x1="442.4" y1="730" x2="1157.6" y2="730" stroke="#ff7f9a" stroke-width="2" stroke-opacity="0.44"/>
    </g>
  
      
        <g transform="translate(720 102)">
          <rect width="44" height="44" rx="12.32" fill="#0e1620" opacity="0.82"/>
          <rect x="12" y="11" width="20" height="22" rx="10" fill="#5be7ff"/>
        </g>
      
        <g transform="translate(778 102)">
          <rect width="44" height="44" rx="12.32" fill="#0e1620" opacity="0.82"/>
          <rect x="8" y="11" width="14" height="22" rx="7" fill="#5be7ff"/><rect x="22" y="11" width="14" height="22" rx="7" fill="#ff7e9f"/>
        </g>
      
        <g transform="translate(836 102)">
          <rect width="44" height="44" rx="12.32" fill="#0e1620" opacity="0.82"/>
          <rect x="14" y="8" width="16" height="28" rx="8" fill="#ffd97f"/>
        </g>
      
      
    <text x="128" y="72" class="hudTag">Score</text>
    <text x="128" y="112" class="hudValue">18620</text>
    <text x="1472" y="72" text-anchor="end" class="hudTag">RUSH</text>
    <text x="1472" y="112" text-anchor="end" class="hudValue">x31</text>
    <circle cx="725" cy="114" r="11" fill="#18222f" fill-opacity="1"/><circle cx="775" cy="114" r="11" fill="#18222f" fill-opacity="1"/><circle cx="825" cy="114" r="11" fill="#18222f" fill-opacity="1"/><circle cx="875" cy="114" r="11" fill="#18222f" fill-opacity="1"/>
  
    </g>
  
    <g transform="translate(480 206)">
      <rect width="640" height="468" rx="38" fill="#0b1018" opacity="0.78"/>
      <rect x="16" y="16" width="608" height="436" rx="30" fill="#111b27" opacity="0.96"/>
      <text x="320" y="122" class="panelValue" text-anchor="middle">18620</text>
      <text x="320" y="178" class="panelLabel" text-anchor="middle">Best 22840</text>
      <text x="320" y="230" class="panelLabel" text-anchor="middle">Combo 31</text>
      <g transform="translate(222 326)">
        <rect width="196" height="76" rx="30" fill="#101924" opacity="0.72"/>
        <rect x="4" y="4" width="188" height="68" rx="26" fill="url(#buttonFill)"/>
        <text x="98" y="46" class="button" text-anchor="middle">Retry</text>
      </g>
    </g>
  
</svg>