<?xml version="1.0" encoding="UTF-8"?>
<svg xmlns="http://www.w3.org/2000/svg" width="720" height="1280" viewBox="0 0 720 1280" fill="none">
  <defs>
    <linearGradient id="bgFill" x1="0" y1="0" x2="1" y2="1">
      <stop offset="0%" stop-color="#070c14"/>
      <stop offset="58%" stop-color="#0d1622"/>
      <stop offset="100%" stop-color="#1b1221"/>
    </linearGradient>
    <linearGradient id="laneFill" x1="0" y1="0" x2="0" y2="1">
      <stop offset="0%" stop-color="#c5d8dd"/>
      <stop offset="100%" stop-color="#576872"/>
    </linearGradient>
    <linearGradient id="buttonFill" x1="0" y1="0" x2="1" y2="1">
      <stop offset="0%" stop-color="#fff2ba"/>
      <stop offset="100%" stop-color="#ffc56a"/>
    </linearGradient>
    <filter id="runwayGlow" x="-20%" y="-20%" width="140%" height="140%">
      <feGaussianBlur stdDeviation="26"/>
    </filter>
    <filter id="tapGlowBlue" x="-80%" y="-80%" width="260%" height="260%">
      <feGaussianBlur stdDeviation="8"/>
    </filter>
    <filter id="tapGlowPink" x="-80%" y="-80%" width="260%" height="260%">
      <feGaussianBlur stdDeviation="8"/>
    </filter>
    <filter id="tapGlowGold" x="-80%" y="-80%" width="260%" height="260%">
      <feGaussianBlur stdDeviation="8"/>
    </filter>
    <style>
      text { font-family: "Avenir Next", "SF Pro Display", "Trebuchet MS", sans-serif; }
      .title { fill: #f7fbff; font-size: 72px; font-weight: 700; letter-spacing: 0.05em; }
      .hudTag { fill: #9eb7c7; font-size: 24px; font-weight: 600; letter-spacing: 0.08em; text-transform: uppercase; }
      .hudValue { fill: #f7fbff; font-size: 52px; font-weight: 700; }
      .button { fill: #16110a; font-size: 28px; font-weight: 700; letter-spacing: 0.06em; }
      .panelValue { fill: #f7fbff; font-size: 82px; font-weight: 700; }
      .panelLabel { fill: #aabfd0; font-size: 28px; font-weight: 600; letter-spacing: 0.08em; }
    </style>
  </defs>
  
    
    <rect width="720" height="1280" fill="url(#bgFill)"/>
    <circle cx="115.2" cy="230.39999999999998" r="129.6" fill="#1f314a" opacity="0.4"/>
    <circle cx="604.8" cy="281.6" r="144" fill="#341d40" opacity="0.34"/>
    <circle cx="360" cy="1049.6" r="316.8" fill="#0c4d5b" opacity="0.18"/>
    <circle cx="100.80000000000001" cy="153.6" r="2.2" fill="#fff2c8" opacity="0.72"/><circle cx="100.80000000000001" cy="153.6" r="8" fill="#fff2c8" opacity="0.08"/><circle cx="187.20000000000002" cy="435.20000000000005" r="2.2" fill="#fff2c8" opacity="0.72"/><circle cx="187.20000000000002" cy="435.20000000000005" r="8" fill="#fff2c8" opacity="0.08"/><circle cx="532.8" cy="179.20000000000002" r="2.2" fill="#fff2c8" opacity="0.72"/><circle cx="532.8" cy="179.20000000000002" r="8" fill="#fff2c8" opacity="0.08"/><circle cx="633.6" cy="358.40000000000003" r="2.2" fill="#fff2c8" opacity="0.72"/><circle cx="633.6" cy="358.40000000000003" r="8" fill="#fff2c8" opacity="0.08"/><circle cx="503.99999999999994" cy="793.6" r="2.2" fill="#fff2c8" opacity="0.72"/><circle cx="503.99999999999994" cy="793.6" r="8" fill="#fff2c8" opacity="0.08"/><circle cx="158.4" cy="947.2" r="2.2" fill="#fff2c8" opacity="0.72"/><circle cx="158.4" cy="947.2" r="8" fill="#fff2c8" opacity="0.08"/><circle cx="388.8" cy="1126.4" r="2.2" fill="#fff2c8" opacity="0.72"/><circle cx="388.8" cy="1126.4" r="8" fill="#fff2c8" opacity="0.08"/>
  
    
    <g>
      
    <g filter="url(#runwayGlow)">
      <polygon points="30,1140 210,1140 327,226 270,226 510,1140 690,1140 450,226 393,226" fill="#78e7ff" opacity="0.14"/>
    </g>
  
      
        <polygon points="40,1140 200,1140 319,226 278,226" fill="url(#laneFill)" opacity="0.94"/>
      
        <polygon points="200,1140 360,1140 360,226 319,226" fill="url(#laneFill)" opacity="0.82"/>
      
        <polygon points="360,1140 520,1140 401,226 360,226" fill="url(#laneFill)" opacity="0.94"/>
      
        <polygon points="520,1140 680,1140 442,226 401,226" fill="url(#laneFill)" opacity="0.82"/>
      
      
    <line x1="40" y1="1140" x2="278" y2="226" stroke="#d7fbff" stroke-opacity="0.18" stroke-width="4"/>
  
    <line x1="200" y1="1140" x2="319" y2="226" stroke="#d7fbff" stroke-opacity="0.18" stroke-width="4"/>
  
    <line x1="360" y1="1140" x2="360" y2="226" stroke="#d7fbff" stroke-opacity="0.18" stroke-width="4"/>
  
    <line x1="520" y1="1140" x2="401" y2="226" stroke="#d7fbff" stroke-opacity="0.18" stroke-width="4"/>
  
    <line x1="680" y1="1140" x2="442" y2="226" stroke="#d7fbff" stroke-opacity="0.18" stroke-width="4"/>
  
      
    <line x1="81.6" y1="853.2" x2="638.4" y2="853.2" stroke="#69e6ff" stroke-opacity="0.15" stroke-width="6"/>
  
    <line x1="141.10000000000002" y1="657.2" x2="578.9" y2="657.2" stroke="#69e6ff" stroke-opacity="0.15" stroke-width="6"/>
  
    <line x1="200.6" y1="461.20000000000005" x2="519.4" y2="461.20000000000005" stroke="#69e6ff" stroke-opacity="0.15" stroke-width="6"/>
  
    <line x1="248.20000000000002" y1="304.4" x2="471.79999999999995" y2="304.4" stroke="#69e6ff" stroke-opacity="0.15" stroke-width="6"/>
  
      
    <g filter="url(#tapGlowBlue)">
      <polygon points="256.0852,753.669 339.6148,753.669 350.056,795.9309999999999 245.64399999999998,795.9309999999999" fill="#5be7ff" fill-opacity="0.96"/>
      <polygon points="264.43816,760.43092 331.26184,760.43092 341.70304,787.4785999999999 253.99695999999997,787.4785999999999" fill="#f7fbff" fill-opacity="0.18"/>
    </g>
  
    <polygon points="367.8496,602.3199999999999 450.2704,602.3199999999999 417.137216,445.52 377.182784,445.52" fill="#ffd97f" fill-opacity="0.22"/>
    
    <g filter="url(#tapGlowGold)">
      <polygon points="376.09168,585.6396 442.02832,585.6396 450.2704,619.0003999999999 367.8496,619.0003999999999" fill="#ffd97f" fill-opacity="0.96"/>
      <polygon points="382.685344,590.9773279999999 435.434656,590.9773279999999 443.676736,612.3282399999999 374.443264,612.3282399999999" fill="#f7fbff" fill-opacity="0.18"/>
    </g>
  
  
    <g filter="url(#tapGlowPink)">
      <polygon points="232.28784,402.3348 279.03216000000003,402.3348 284.8752,425.98519999999996 226.4448,425.98519999999996" fill="#ff7e9f" fill-opacity="0.96"/>
      <polygon points="236.96227199999998,406.118864 274.357728,406.118864 280.200768,421.25512 231.11923199999998,421.25512" fill="#f7fbff" fill-opacity="0.18"/>
    </g>
  
    <g filter="url(#tapGlowPink)">
      <polygon points="440.96783999999997,402.3348 487.71216000000004,402.3348 493.5552,425.98519999999996 435.1248,425.98519999999996" fill="#ff7e9f" fill-opacity="0.96"/>
      <polygon points="445.642272,406.118864 483.037728,406.118864 488.880768,421.25512 439.799232,421.25512" fill="#f7fbff" fill-opacity="0.18"/>
    </g>
  
    <rect x="281.8752" y="409.902928" width="156.2496" height="8.514144" rx="4.257072" fill="#ff7e9f" fill-opacity="0.38"/>
  
      
    <g>
      <line x1="52.56" y1="1010" x2="667.44" y2="1010" stroke="#fff0b5" stroke-width="8" stroke-opacity="0.95"/>
      <line x1="58.56" y1="1028" x2="661.44" y2="1028" stroke="#ff7f9a" stroke-width="3" stroke-opacity="0.44"/>
    </g>
  
      
        <g transform="translate(266 132)">
          <rect width="52" height="52" rx="14.560000000000002" fill="#0e1620" opacity="0.82"/>
          <rect x="16" y="11" width="20" height="30" rx="10" fill="#5be7ff"/>
        </g>
      
        <g transform="translate(334 132)">
          <rect width="52" height="52" rx="14.560000000000002" fill="#0e1620" opacity="0.82"/>
          <rect x="8" y="11" width="14" height="30" rx="7" fill="#5be7ff"/><rect x="30" y="11" width="14" height="30" rx="7" fill="#ff7e9f"/>
        </g>
      
        <g transform="translate(402 132)">
          <rect width="52" height="52" rx="14.560000000000002" fill="#0e1620" opacity="0.82"/>
          <rect x="18" y="8" width="16" height="36" rx="8" fill="#ffd97f"/>
        </g>
      
      
    <text x="56" y="88" class="hudTag">Score</text>
    <text x="56" y="136" class="hudValue">0</text>
    <text x="664" y="88" text-anchor="end" class="hudTag">SET 4</text>
    <text x="664" y="136" text-anchor="end" class="hudValue">x1</text>
    <circle cx="270" cy="142" r="13" fill="#fff0b5" fill-opacity="0.95"/><circle cx="330" cy="142" r="13" fill="#fff0b5" fill-opacity="0.95"/><circle cx="390" cy="142" r="13" fill="#fff0b5" fill-opacity="0.95"/><circle cx="450" cy="142" r="13" fill="#fff0b5" fill-opacity="0.95"/>
  
    </g>
  
    <text x="360" y="150" class="title" text-anchor="middle">Keyfall</text>
    <g transform="translate(262 1094)">
      <rect width="196" height="76" rx="30" fill="#101924" opacity="0.72"/>
      <rect x="4" y="4" width="188" height="68" rx="26" fill="url(#buttonFill)"/>
      <text x="98" y="46" class="button" text-anchor="middle">Play</text>
    </g>
  
</svg>